<?xml version="1.0" standalone="no"?>
<!DOCTYPE svg PUBLIC "-//W3C//DTD SVG 20010904//EN"
 "http://www.w3.org/TR/2001/REC-SVG-20010904/DTD/svg10.dtd">
<svg version="1.0" xmlns="http://www.w3.org/2000/svg"
 width="600.000000pt" height="600.000000pt" viewBox="0 0 600.000000 600.000000"
 preserveAspectRatio="xMidYMid meet">

<g transform="translate(0.000000,600.000000) scale(0.100000,-0.100000)"
fill="#000000" stroke="none">
<path d="M3629 5402 c-13 -15 -12 -16 3 -4 14 11 17 10 21 -5 4 -16 5 -16 6
-1 2 25 -15 30 -30 10z"/>
<path d="M3890 5260 c-11 -11 -19 -28 -19 -37 1 -17 2 -17 6 0 7 25 19 21 33
-13 7 -16 18 -30 24 -30 37 0 50 72 17 90 -28 14 -38 13 -61 -10z"/>
<path d="M3720 5246 c0 -2 8 -10 18 -17 15 -13 16 -12 3 4 -13 16 -21 21 -21
13z"/>
<path d="M3760 5206 c0 -2 8 -10 18 -17 15 -13 16 -12 3 4 -13 16 -21 21 -21
13z"/>
<path d="M3887 5189 c7 -7 15 -10 18 -7 3 3 -2 9 -12 12 -14 6 -15 5 -6 -5z"/>
<path d="M3820 5176 c0 -2 8 -10 18 -17 15 -13 16 -12 3 4 -13 16 -21 21 -21
13z"/>
<path d="M4221 5156 c-17 -20 -88 -34 -205 -41 -55 -3 -102 -7 -104 -10 -3 -3
54 -5 127 -5 85 0 130 4 126 10 -3 6 1 7 10 4 23 -9 14 -25 -33 -60 -22 -18
-38 -35 -34 -39 4 -4 -7 -4 -23 -1 -27 6 -28 5 -8 -5 24 -12 58 -5 48 10 -3 5
0 13 7 17 7 4 10 4 6 0 -4 -5 -3 -19 3 -33 6 -16 6 -22 -1 -18 -6 3 -10 3 -11
-2 0 -4 -2 -18 -3 -31 -3 -27 7 -19 28 22 10 20 17 25 19 15 3 -8 10 -34 17
-58 7 -28 15 -40 20 -32 5 10 9 8 14 -4 9 -23 8 -27 -5 -19 -8 5 -9 2 -1 -11
5 -10 17 -20 26 -21 12 -2 11 7 -9 47 -14 26 -25 56 -26 66 0 16 -2 16 -10 -2
-11 -24 -5 27 12 87 12 45 24 49 32 11 3 -16 29 -66 58 -113 55 -92 76 -136
58 -125 -6 4 -27 4 -46 0 -24 -4 -32 -9 -24 -15 7 -4 9 -10 5 -12 -5 -3 -2 -3
6 -1 59 17 77 15 83 -8 4 -13 7 -35 7 -50 0 -14 6 -31 13 -38 10 -10 9 -11 -6
-5 -13 5 -16 2 -11 -9 3 -9 11 -14 17 -12 41 12 77 14 71 3 -5 -7 1 -9 19 -6
15 3 24 1 21 -3 -3 -5 20 -9 50 -9 31 0 56 -2 56 -5 0 -22 -75 -65 -135 -78
-11 -3 1 -5 28 -6 l47 -1 1 -57 c0 -45 2 -53 9 -35 5 12 7 28 4 36 -3 8 4 32
15 54 11 22 17 43 13 46 -3 4 1 4 11 0 10 -3 17 -1 17 5 0 6 5 11 10 11 6 0
10 -24 10 -52 1 -49 27 -182 29 -148 1 13 3 13 12 0 9 -12 10 -12 5 3 -3 10
-6 28 -6 38 0 11 -3 18 -7 16 -17 -11 -7 138 11 176 21 42 36 48 36 13 0 -13
13 -70 30 -127 16 -57 30 -110 30 -116 0 -8 -13 -13 -32 -13 -18 0 -40 -5 -48
-10 -12 -7 -8 -10 15 -10 76 -1 85 -13 60 -85 -11 -32 -11 -37 0 -22 10 14 14
15 19 5 3 -7 3 1 0 17 -4 23 -3 27 5 15 9 -12 11 -10 11 12 0 24 4 27 29 25
16 -1 27 -5 25 -9 -3 -4 4 -12 15 -17 26 -14 34 -14 25 2 -4 7 -3 9 2 4 5 -5
9 -14 9 -20 0 -6 35 -29 78 -51 65 -34 74 -42 60 -50 -32 -18 -115 -11 -162
13 -23 12 -40 17 -35 10 5 -9 2 -10 -9 -6 -10 3 -17 4 -17 1 0 -9 105 -54 128
-54 30 0 28 -12 -5 -32 -16 -10 -22 -18 -14 -18 11 0 11 -3 0 -17 -13 -16 -12
-17 3 -4 10 7 15 18 12 23 -3 5 0 9 7 7 27 -3 40 1 34 11 -3 6 -1 10 4 10 13
0 14 -6 2 -29 -6 -10 -7 -28 -4 -40 6 -23 6 -22 18 5 13 31 62 94 73 94 4 0 6
-64 4 -142 -4 -162 5 -182 13 -32 7 117 21 188 41 205 23 19 18 42 -9 35 -38
-9 -96 12 -203 75 -55 32 -105 59 -110 59 -5 0 -24 59 -43 130 -27 103 -33
143 -28 189 l5 58 -67 -4 c-50 -4 -86 1 -151 20 -47 14 -100 28 -118 32 -18 4
-36 13 -39 21 -3 8 -10 11 -16 7 -6 -3 -7 -1 -3 6 4 6 -16 49 -45 97 -57 95
-82 164 -73 200 7 27 -16 34 -35 10z m261 -380 c86 -28 157 -46 182 -46 14 0
26 -4 26 -9 0 -16 -75 -45 -115 -44 -88 1 -150 8 -157 18 -4 5 -8 29 -8 53 0
48 5 50 72 28z m100 -208 c-3 -12 -7 -17 -10 -10 -2 6 -11 12 -20 13 -14 0
-13 2 3 9 31 13 34 12 27 -12z m328 -353 c14 -8 21 -14 15 -14 -5 0 -21 6 -35
14 -14 8 -20 14 -15 14 6 0 21 -6 35 -14z"/>
<path d="M4048 4993 c7 -3 16 -2 19 1 4 3 -2 6 -13 5 -11 0 -14 -3 -6 -6z"/>
<path d="M2820 4960 c0 -5 4 -10 9 -10 6 0 13 5 16 10 3 6 -1 10 -9 10 -9 0
-16 -4 -16 -10z"/>
<path d="M2856 4953 c-10 -25 48 -80 82 -79 22 1 29 8 42 44 8 23 17 42 20 42
3 0 13 -20 23 -44 22 -52 44 -55 99 -12 29 24 35 33 27 48 -8 15 -26 17 -148
17 -120 1 -140 -2 -145 -16z"/>
<path d="M3160 4960 c0 -5 6 -10 13 -10 13 0 28 -24 41 -62 3 -10 14 -18 24
-18 10 0 23 -5 29 -11 8 -8 13 -8 17 0 4 6 18 11 32 11 17 0 24 6 24 19 0 10
7 24 16 32 14 12 14 14 -4 20 -12 4 -49 11 -84 14 -35 3 -73 8 -85 11 -13 2
-23 0 -23 -6z"/>
<path d="M1488 4934 c-21 -45 21 -87 66 -66 28 13 36 58 14 80 -22 22 -67 14
-80 -14z m79 -21 c2 -27 -1 -34 -22 -39 -32 -8 -50 3 -34 22 7 9 8 14 3 12
-10 -3 -14 4 -14 28 0 11 8 14 32 12 29 -3 33 -7 35 -35z"/>
<path d="M2715 4955 c-5 -2 -27 -6 -48 -10 -36 -6 -38 -7 -23 -24 9 -10 16
-25 16 -34 0 -11 8 -17 24 -17 14 0 28 -4 31 -10 4 -6 12 -6 23 -1 9 5 25 12
35 15 9 3 17 14 17 25 0 11 5 23 10 26 6 3 10 13 10 21 0 10 -12 14 -42 13
-24 0 -47 -2 -53 -4z"/>
<path d="M4431 4946 c-16 -19 -10 -66 10 -79 44 -28 95 25 69 72 -13 25 -61
29 -79 7z"/>
<path d="M1670 4910 c-6 -11 -15 -18 -20 -15 -6 4 -7 -1 -3 -11 4 -11 3 -15
-5 -10 -14 9 -25 -10 -15 -28 6 -11 15 -2 35 35 16 27 26 49 23 49 -2 0 -9 -9
-15 -20z"/>
<path d="M2522 4917 c-24 -7 -43 -15 -43 -19 1 -5 1 -12 1 -18 0 -21 55 -9 82
17 31 30 51 24 23 -7 -18 -20 -18 -20 18 -20 29 0 37 4 37 18 0 42 -36 50
-118 29z"/>
<path d="M3370 4916 c-5 -5 -10 -18 -10 -28 0 -14 8 -18 35 -18 39 0 42 5 18
32 -25 28 0 21 27 -7 25 -27 68 -33 89 -12 10 10 11 9 6 -5 -4 -10 -16 -18
-26 -18 -21 0 -25 -15 -8 -26 6 -4 9 -19 5 -36 -5 -26 -3 -29 12 -23 21 9 40
9 70 0 21 -7 22 -5 16 19 -4 16 -1 32 6 41 18 22 32 18 18 -4 -23 -37 25 -101
76 -101 22 0 46 35 46 67 0 28 -5 33 -47 48 -27 9 -58 21 -71 26 -13 5 -31 9
-40 8 -11 -1 -8 -4 8 -9 24 -8 24 -8 3 -9 -12 -1 -27 7 -32 17 -6 12 -34 24
-83 34 -82 19 -103 19 -118 4z"/>
<path d="M2817 4913 c-4 -3 -7 -15 -7 -25 0 -13 8 -18 30 -18 34 0 38 10 12
33 -20 19 -26 20 -35 10z"/>
<path d="M3147 4902 c-24 -26 -21 -32 14 -32 26 0 30 3 27 22 -4 29 -21 33
-41 10z"/>
<path d="M2430 4880 c-6 -11 -20 -20 -33 -19 -21 1 -21 1 3 9 15 5 18 8 8 9
-9 1 -23 -2 -32 -5 -13 -5 -11 -10 9 -31 19 -21 22 -31 14 -51 -8 -21 -7 -23
8 -17 23 10 53 10 75 1 16 -7 17 -4 12 22 -4 17 -1 32 5 36 17 11 13 24 -6 22
-10 0 -22 9 -28 22 -12 27 -21 28 -35 2z"/>
<path d="M2986 4875 c-4 -17 -13 -25 -27 -25 -18 0 -19 -3 -9 -15 7 -9 10 -25
6 -40 -6 -24 -5 -25 14 -15 16 8 30 8 52 1 40 -14 39 -15 26 14 -8 19 -8 28 2
40 10 13 9 15 -8 15 -13 0 -22 9 -26 25 -4 14 -10 25 -15 25 -5 0 -12 -11 -15
-25z"/>
<path d="M2297 4845 c-50 -17 -51 -18 -43 -57 8 -44 35 -61 74 -47 42 14 60
60 38 94 -19 29 -18 29 -69 10z"/>
<path d="M3313 4853 c-19 -7 -16 -27 7 -48 20 -18 20 -17 20 13 0 33 -7 42
-27 35z"/>
<path d="M3364 4851 c-2 -2 -4 -23 -4 -46 0 -58 26 -81 72 -66 24 8 37 21 46
43 10 28 9 35 -10 55 -17 18 -31 23 -61 21 -21 -2 -40 -5 -43 -7z"/>
<path d="M2528 4833 c-39 -45 50 -126 94 -87 12 12 18 31 18 61 l0 43 -48 0
c-34 0 -54 -5 -64 -17z"/>
<path d="M2660 4818 c0 -30 0 -31 20 -13 11 10 20 24 20 32 0 7 -9 13 -20 13
-16 0 -20 -7 -20 -32z"/>
<path d="M2747 4843 c-8 -7 21 -43 35 -43 4 0 8 11 8 25 0 18 -5 25 -18 25
-10 0 -22 -3 -25 -7z"/>
<path d="M2812 4803 c2 -33 7 -47 16 -45 8 1 11 -2 8 -7 -11 -17 10 -21 42 -9
19 7 36 24 43 41 19 44 2 61 -60 65 l-52 3 3 -48z"/>
<path d="M3081 4831 c-28 -51 49 -122 91 -84 12 11 18 30 18 60 l0 43 -50 0
c-38 0 -52 -4 -59 -19z"/>
<path d="M3210 4825 c0 -30 11 -32 33 -7 19 21 13 32 -15 32 -13 0 -18 -7 -18
-25z"/>
<path d="M1598 4826 c-10 -7 -14 -17 -10 -21 4 -4 -4 -5 -18 -2 -14 4 -65 -5
-120 -20 -71 -19 -110 -24 -155 -21 l-60 5 1 -103 c0 -65 -3 -101 -9 -97 -6 4
-8 -3 -4 -16 3 -13 3 -20 -1 -17 -10 11 -32 -76 -25 -102 6 -23 43 -52 43 -32
0 5 -6 10 -14 10 -7 0 -16 10 -20 23 -9 33 -7 44 5 27 8 -11 9 -8 4 13 -3 17
-2 26 4 23 9 -6 51 134 51 172 0 12 4 22 9 22 16 0 44 -73 43 -114 0 -90 -7
-155 -14 -143 -5 9 -8 8 -8 -4 0 -8 4 -19 10 -25 7 -7 -3 -9 -28 -7 l-37 2 35
-8 c39 -8 120 -52 120 -64 0 -5 -12 -25 -27 -45 -16 -20 -22 -32 -14 -27 11 6
13 4 7 -11 -8 -22 -9 -23 43 40 22 27 38 53 35 58 -3 5 -2 7 3 6 4 -2 63 51
129 117 67 66 123 120 125 121 8 1 149 107 149 111 0 6 -38 -16 -45 -27 -3 -6
-11 -10 -16 -10 -6 0 -7 5 -3 12 4 6 -14 -4 -40 -23 -78 -57 -74 -55 -91 -34
-15 20 -15 20 -21 -1 -5 -18 -16 -22 -78 -27 -39 -4 -83 -3 -97 1 -26 7 -79
45 -79 56 0 3 22 6 49 6 27 0 73 5 102 12 51 12 52 12 74 -16 29 -36 40 -19
19 30 -9 21 -14 55 -12 76 3 28 0 38 -10 38 -12 0 -11 5 2 25 19 28 18 30 -6
11z m-22 -36 c10 0 14 -13 14 -44 l0 -45 -57 -12 c-81 -18 -142 -16 -185 5
-21 10 -38 22 -38 26 0 4 21 10 48 14 58 8 198 52 186 58 -5 3 -3 3 4 1 8 -1
20 -3 28 -3z m204 -134 c0 -3 -15 -14 -32 -26 l-33 -22 28 26 c27 25 37 31 37
22z m-399 -58 c34 -39 40 -67 33 -149 -6 -63 -10 -80 -25 -84 -19 -6 -59 14
-59 29 0 5 8 2 18 -7 10 -10 22 -17 26 -17 4 0 -5 11 -20 24 -27 23 -28 25
-16 75 7 29 12 75 12 102 0 27 3 49 6 49 3 0 15 -10 25 -22z m249 -34 c0 -3
-34 -39 -76 -79 -52 -49 -74 -77 -69 -85 5 -8 4 -11 -3 -6 -6 3 -13 2 -17 -4
-3 -5 -14 -14 -24 -20 -17 -8 -18 -6 -10 33 4 23 8 68 9 99 l0 57 68 4 c37 2
79 4 95 5 15 1 27 -1 27 -4z m-239 -287 c-13 -12 -20 -15 -16 -7 14 26 28 41
33 35 3 -3 -5 -16 -17 -28z"/>
<path d="M4244 4820 c2 -16 20 -14 24 2 3 10 2 10 -6 -1 -7 -9 -11 -10 -15 -2
-4 7 -5 8 -3 1z"/>
<path d="M1635 4809 c-19 -9 -18 -9 2 -5 13 2 26 0 29 -5 3 -5 11 -9 17 -9 8
0 7 3 -2 9 -11 7 -11 9 0 14 9 3 6 5 -6 6 -11 0 -29 -5 -40 -10z"/>
<path d="M2217 4814 c-8 -8 1 -24 14 -24 5 0 9 7 9 15 0 15 -12 20 -23 9z"/>
<path d="M3760 4805 c0 -9 5 -15 11 -13 6 2 11 8 11 13 0 5 -5 11 -11 13 -6 2
-11 -4 -11 -13z"/>
<path d="M2688 4778 c-35 -50 -34 -72 6 -86 77 -28 117 34 58 91 -15 15 -31
27 -34 27 -4 0 -17 -15 -30 -32z m22 -68 c0 -5 -5 -10 -11 -10 -5 0 -7 5 -4
10 3 6 8 10 11 10 2 0 4 -4 4 -10z"/>
<path d="M3247 4782 c-55 -57 -16 -117 59 -92 44 15 47 54 6 93 -15 15 -30 27
-33 27 -3 0 -17 -13 -32 -28z"/>
<path d="M2138 4778 c-42 -24 -42 -25 -29 -61 12 -30 55 -42 94 -28 33 13 36
54 8 89 -23 27 -27 27 -73 0z"/>
<path d="M3786 4776 c-27 -42 -21 -75 16 -90 40 -17 90 1 99 36 6 21 7 20 8
-8 1 -24 -4 -32 -26 -41 l-28 -10 33 -13 c21 -8 32 -19 32 -32 0 -17 2 -18 15
-8 12 10 21 10 41 1 34 -15 35 -15 23 16 -5 14 -7 39 -4 53 5 21 2 29 -12 34
-10 3 -24 9 -32 12 -10 5 -11 2 -6 -7 5 -8 -3 -2 -17 13 -25 26 -65 50 -104
62 -16 5 -26 0 -38 -18z"/>
<path d="M1715 4778 c11 -6 27 -16 35 -22 9 -6 5 -1 -8 12 -13 12 -28 22 -35
22 -7 0 -3 -6 8 -12z"/>
<path d="M1820 4751 c0 -6 4 -13 10 -16 6 -3 7 1 4 9 -7 18 -14 21 -14 7z"/>
<path d="M2405 4746 c-42 -18 -61 -72 -42 -119 31 -74 140 -73 170 1 14 34 13
40 -3 73 -17 33 -55 60 -83 59 -7 -1 -25 -7 -42 -14z"/>
<path d="M2953 4740 c-18 -11 -34 -25 -34 -32 -1 -7 -3 -24 -5 -38 -5 -46 15
-79 57 -91 52 -16 95 2 114 48 20 48 -2 104 -49 121 -43 16 -45 15 -83 -8z
m-9 -116 c3 -8 2 -12 -4 -9 -6 3 -10 10 -10 16 0 14 7 11 14 -7z"/>
<path d="M3509 4745 c-39 -21 -55 -67 -39 -114 16 -49 67 -70 123 -52 67 22
75 124 14 162 -38 22 -62 23 -98 4z"/>
<path d="M2051 4719 c15 -9 7 -12 -28 -9 -26 2 -28 -3 -13 -30 7 -12 7 -28 0
-44 -11 -29 -8 -31 21 -15 17 8 23 7 35 -8 13 -17 13 -17 14 5 0 15 9 26 28
33 l27 11 -28 14 c-20 11 -26 20 -22 33 4 15 0 19 -21 19 -18 0 -22 -3 -13 -9z"/>
<path d="M3729 4715 c-14 -14 -21 -15 -39 -5 -28 15 -34 9 -19 -24 9 -19 9
-32 1 -51 -11 -23 -10 -24 17 -19 16 4 32 1 35 -5 8 -12 27 -15 25 -3 -4 22 4
34 29 43 l27 11 -27 10 c-18 6 -28 18 -30 34 -3 23 -4 24 -19 9z"/>
<path d="M2260 4702 c0 -13 -10 -24 -27 -30 l-28 -10 28 -11 c18 -7 27 -18 27
-33 0 -21 1 -21 13 -4 11 15 17 16 35 7 30 -16 33 -14 20 14 -8 19 -8 31 0 50
16 35 16 36 -13 23 -19 -8 -28 -8 -40 2 -13 10 -15 9 -15 -8z"/>
<path d="M2620 4709 c0 -8 -11 -9 -31 -5 -27 5 -30 4 -24 -12 10 -22 10 -42 0
-66 -7 -16 -6 -17 14 -6 19 10 26 9 42 -6 18 -16 19 -16 19 4 0 12 10 27 22
33 22 12 21 12 -6 26 -17 9 -25 20 -22 29 3 8 1 14 -4 14 -6 0 -10 -5 -10 -11z"/>
<path d="M2810 4701 c0 -14 -8 -23 -27 -28 l-28 -6 32 -13 c25 -11 30 -18 26
-36 -6 -22 -5 -22 13 -6 14 12 24 14 37 6 24 -13 31 -5 18 20 -8 14 -8 29 -1
47 10 26 9 27 -16 21 -15 -4 -32 -2 -40 5 -11 9 -14 7 -14 -10z"/>
<path d="M3110 4715 c0 -2 5 -16 12 -30 8 -18 8 -31 0 -50 -11 -23 -10 -24 15
-14 20 7 28 6 39 -8 12 -17 13 -16 14 5 0 15 9 26 28 33 l27 11 -27 10 c-18 6
-28 17 -28 30 0 17 -2 18 -15 8 -12 -10 -21 -10 -40 -2 -14 7 -25 10 -25 7z"/>
<path d="M3360 4702 c0 -11 -10 -24 -22 -29 l-23 -11 28 -11 c15 -6 27 -18 27
-28 0 -13 3 -14 11 -6 8 8 20 8 36 2 23 -9 24 -7 18 19 -3 16 -1 40 4 55 10
25 9 26 -16 16 -18 -7 -30 -6 -37 1 -15 15 -26 12 -26 -8z"/>
<path d="M1903 4642 c-40 -26 -73 -50 -73 -53 0 -3 15 -10 33 -16 49 -14 98 9
118 55 15 36 15 62 1 62 -4 0 -40 -22 -79 -48z"/>
<path d="M4006 4675 c-3 -9 3 -33 13 -54 24 -45 79 -69 123 -52 20 7 28 7 32
-2 2 -7 5 -7 5 -2 1 17 -12 30 -76 73 -78 53 -89 57 -97 37z"/>
<path d="M2138 4634 c-37 -19 -36 -52 1 -88 l29 -28 31 23 c42 31 43 72 1 94
-34 18 -28 18 -62 -1z"/>
<path d="M2691 4634 c-22 -9 -31 -20 -31 -37 0 -24 31 -61 43 -52 4 3 5 2 2
-2 -3 -3 0 -12 7 -20 9 -11 16 -9 40 13 61 59 17 131 -61 98z"/>
<path d="M3248 4636 c-38 -14 -38 -55 1 -94 l30 -29 31 32 c40 41 38 74 -5 90
-21 8 -38 9 -57 1z m-3 -56 c3 -5 1 -10 -4 -10 -6 0 -11 5 -11 10 0 6 2 10 4
10 3 0 8 -4 11 -10z m35 -43 c0 -4 -6 -2 -14 5 -8 7 -12 17 -9 22 5 8 23 -12
23 -27z"/>
<path d="M3798 4638 c-40 -14 -38 -55 5 -96 l33 -32 26 27 c14 16 28 41 30 56
5 23 0 30 -23 42 -32 17 -34 17 -71 3z"/>
<path d="M3673 4584 c-22 -10 -33 -22 -38 -45 -9 -39 6 -55 63 -64 l42 -7 0
50 c0 65 -21 85 -67 66z"/>
<path d="M3937 4582 c-11 -12 -17 -36 -17 -65 l0 -47 43 0 c81 0 101 69 33
111 -38 23 -39 23 -59 1z"/>
<path d="M2004 4580 c-12 -5 -27 -23 -33 -41 -15 -42 -3 -54 62 -63 l47 -7 0
48 c0 68 -21 85 -76 63z"/>
<path d="M2272 4578 c-7 -7 -12 -32 -12 -57 l0 -46 46 2 c60 2 78 18 64 60
-15 43 -72 67 -98 41z"/>
<path d="M2552 4573 c-27 -23 -38 -66 -20 -80 7 -6 33 -13 58 -15 l45 -3 3 38
c6 66 -41 98 -86 60z"/>
<path d="M2827 4572 c-9 -10 -17 -35 -17 -54 0 -35 1 -36 46 -40 54 -4 79 15
69 55 -13 48 -69 71 -98 39z"/>
<path d="M3114 4580 c-12 -5 -27 -23 -33 -41 -15 -42 -2 -54 62 -63 l47 -6 0
44 c0 29 -6 48 -18 59 -21 19 -27 20 -58 7z"/>
<path d="M3382 4578 c-7 -7 -12 -31 -12 -54 0 -42 1 -43 38 -46 25 -2 44 3 58
15 19 16 20 22 11 47 -16 42 -70 63 -95 38z"/>
<path d="M4428 4583 c6 -2 18 -2 25 0 6 3 1 5 -13 5 -14 0 -19 -2 -12 -5z"/>
<path d="M1748 4529 c-27 -23 -48 -45 -48 -50 0 -16 89 -3 109 15 16 15 17 22
8 47 -6 16 -14 29 -17 29 -3 -1 -26 -19 -52 -41z"/>
<path d="M4180 4540 c-18 -43 7 -70 66 -70 23 0 49 -3 58 -6 19 -7 21 -37 4
-64 -10 -15 -10 -22 0 -32 6 -6 12 -20 12 -30 0 -11 7 -18 18 -18 10 0 24 -6
30 -12 10 -10 17 -10 32 0 24 14 64 16 55 2 -3 -5 -15 -10 -25 -10 -31 0 -34
-21 -6 -48 l26 -27 0 37 c0 20 5 40 10 43 6 4 10 -14 10 -48 0 -69 23 -95 69
-79 35 12 43 1 29 -38 -16 -42 9 -98 53 -121 21 -10 46 -16 56 -12 15 5 16 3
6 -7 -10 -11 -20 -11 -48 -3 -40 13 -39 13 -24 -21 9 -20 9 -29 -1 -41 -10
-13 -9 -15 8 -15 13 0 24 -11 32 -32 l13 -33 10 28 c9 22 17 27 41 26 30 -1
30 -1 6 -8 -18 -5 -28 -17 -34 -44 -19 -75 38 -119 92 -71 l27 23 -30 56 c-16
31 -38 61 -47 66 -10 5 -18 15 -18 22 0 7 4 6 10 -3 20 -32 9 1 -17 47 -23 42
-92 149 -115 178 -4 6 -20 26 -35 45 -65 83 -171 194 -254 267 -50 43 -94 79
-98 81 -5 1 -14 -11 -21 -28z"/>
<path d="M1840 4548 c0 -7 4 -20 10 -28 5 -9 5 -19 -2 -27 -8 -10 -6 -13 6
-13 9 0 21 -12 27 -27 l11 -28 11 23 c5 12 18 22 29 22 20 0 23 11 7 27 -8 8
-8 17 0 32 13 23 -1 29 -28 12 -10 -6 -25 -4 -43 5 -22 11 -28 12 -28 2z"/>
<path d="M4050 4554 c0 -3 5 -15 11 -26 8 -14 8 -23 0 -31 -16 -16 -13 -27 8
-27 12 0 23 -10 29 -27 l9 -28 13 28 c8 15 21 27 32 27 20 0 23 11 7 27 -8 8
-8 17 1 33 15 28 10 32 -28 19 -22 -7 -36 -7 -51 0 -22 12 -31 14 -31 5z"/>
<path d="M2400 4531 c6 -13 9 -29 6 -37 -3 -8 -1 -14 5 -14 5 0 16 -15 24 -32
l13 -33 7 28 c6 21 13 27 33 27 24 0 25 1 10 16 -12 13 -14 23 -7 41 8 22 7
24 -13 17 -27 -8 -34 -8 -67 2 -22 6 -22 5 -11 -15z"/>
<path d="M2950 4544 c0 -5 4 -16 10 -24 5 -9 5 -19 -1 -26 -6 -8 -3 -13 11
-17 12 -3 20 -13 20 -26 0 -27 16 -27 23 -1 3 12 14 20 27 20 19 0 20 2 10 15
-7 9 -10 25 -6 41 6 23 5 25 -11 19 -23 -10 -43 -10 -65 0 -10 4 -18 3 -18 -1z"/>
<path d="M3510 4530 c9 -16 9 -25 -1 -36 -9 -11 -8 -14 5 -14 9 0 23 -14 30
-31 l13 -31 7 26 c4 17 13 26 26 26 22 0 26 10 9 27 -8 8 -8 17 1 33 11 21 11
22 -11 16 -33 -10 -40 -10 -67 -2 -22 7 -23 6 -12 -14z"/>
<path d="M2110 4502 c0 -34 5 -38 30 -22 13 8 12 13 -7 32 l-23 22 0 -32z"/>
<path d="M2204 4509 c-16 -17 -16 -22 -4 -29 24 -16 30 -12 30 20 0 36 -1 36
-26 9z"/>
<path d="M2660 4502 c0 -21 5 -32 14 -32 26 0 29 21 7 43 l-21 21 0 -32z"/>
<path d="M3316 4511 c-19 -21 -14 -41 10 -41 9 0 14 11 14 30 0 35 -1 36 -24
11z"/>
<path d="M3770 4502 c0 -21 5 -32 14 -32 26 0 29 21 7 43 l-21 21 0 -32z"/>
<path d="M3864 4509 c-16 -17 -16 -22 -4 -29 24 -16 30 -12 30 20 0 36 -1 36
-26 9z"/>
<path d="M1093 4508 c15 -5 24 -14 21 -20 -4 -6 -2 -8 4 -4 6 3 12 -3 15 -16
4 -23 4 -23 6 -1 1 23 -33 54 -59 52 -8 0 -3 -5 13 -11z"/>
<path d="M2761 4506 c-11 -13 -11 -20 -3 -28 15 -15 24 -5 20 23 -3 21 -4 21
-17 5z"/>
<path d="M3220 4497 c0 -27 13 -36 26 -16 3 6 -1 18 -10 27 -15 15 -16 14 -16
-11z"/>
<path d="M4876 4504 c-36 -36 -8 -87 44 -82 31 3 35 6 38 36 2 18 -2 40 -9 48
-15 19 -54 18 -73 -2z"/>
<path d="M2155 4460 c-3 -5 -14 -10 -23 -10 -24 0 -43 -63 -28 -96 6 -13 15
-24 20 -24 5 0 18 -8 29 -17 15 -13 21 -15 24 -5 3 6 16 12 29 12 16 0 24 6
24 18 0 10 6 24 12 30 10 10 10 17 0 32 -6 11 -12 27 -12 35 0 8 -9 15 -19 15
-11 0 -23 5 -26 10 -3 6 -10 10 -15 10 -5 0 -12 -4 -15 -10z"/>
<path d="M2716 4461 c-4 -6 -18 -11 -32 -11 -19 0 -24 -5 -24 -24 0 -14 -5
-28 -11 -32 -8 -4 -8 -9 0 -17 6 -6 11 -19 11 -29 0 -16 23 -24 53 -19 5 1 6
-3 3 -8 -10 -16 11 -22 24 -6 6 7 18 11 26 8 9 -3 14 2 14 15 0 11 7 25 15 32
14 12 14 15 0 30 -8 9 -15 24 -15 33 0 10 -8 17 -18 17 -10 0 -23 5 -29 11 -8
8 -13 8 -17 0z"/>
<path d="M3266 4461 c-4 -6 -16 -11 -27 -11 -12 0 -19 -7 -19 -18 0 -10 -5
-23 -11 -29 -14 -14 9 -73 27 -73 6 0 17 -7 24 -15 10 -12 15 -13 28 -3 8 7
23 12 34 10 13 -2 18 3 18 20 0 13 5 29 11 35 8 8 8 13 0 17 -6 4 -11 18 -11
32 0 18 -5 24 -23 24 -13 0 -28 5 -34 11 -8 8 -13 8 -17 0z"/>
<path d="M3815 4460 c-3 -5 -15 -10 -26 -10 -14 0 -19 -7 -19 -24 0 -14 -5
-28 -11 -32 -8 -4 -8 -9 0 -17 6 -6 11 -18 11 -26 1 -18 68 -53 76 -40 3 5 14
9 25 9 12 0 19 7 19 19 0 10 7 24 15 31 14 12 14 15 0 30 -8 9 -15 24 -15 33
0 10 -8 17 -19 17 -11 0 -23 5 -26 10 -3 6 -10 10 -15 10 -5 0 -12 -4 -15 -10z"/>
<path d="M4581 4444 c0 -11 3 -14 6 -6 3 7 2 16 -1 19 -3 4 -6 -2 -5 -13z"/>
<path d="M1601 4395 c-29 -30 -49 -60 -46 -65 4 -6 11 -8 16 -4 6 3 19 -2 29
-11 12 -11 20 -13 25 -6 3 6 17 11 31 11 18 0 24 5 24 23 0 13 5 28 11 34 8 8
8 13 0 17 -6 4 -11 18 -11 32 0 38 -22 29 -79 -31z"/>
<path d="M1704 4439 c-3 -6 -1 -16 5 -22 8 -8 17 -5 33 11 l22 22 -26 0 c-15
0 -30 -5 -34 -11z"/>
<path d="M1772 4417 l-32 -33 27 -26 c16 -15 41 -28 57 -30 24 -2 31 2 42 27
10 25 10 36 -1 63 -19 43 -51 42 -93 -1z"/>
<path d="M1920 4416 c-24 -73 28 -110 91 -65 37 26 37 41 -2 73 -44 37 -75 34
-89 -8z"/>
<path d="M2035 4430 c10 -11 24 -20 32 -20 7 0 13 9 13 20 0 16 -7 20 -32 20
-30 0 -31 0 -13 -20z"/>
<path d="M2260 4436 c0 -22 19 -30 35 -16 22 18 18 30 -10 30 -15 0 -25 -6
-25 -14z"/>
<path d="M2331 4418 l-31 -33 28 -26 c15 -15 39 -29 54 -33 23 -5 28 -2 37 26
8 23 8 40 -1 65 -16 43 -47 44 -87 1z"/>
<path d="M2479 4426 c-7 -14 -9 -40 -5 -60 6 -32 10 -36 38 -36 21 0 42 9 60
27 l28 27 -32 33 c-38 40 -74 43 -89 9z"/>
<path d="M2598 4428 c16 -16 25 -19 33 -11 16 16 2 33 -29 33 l-26 0 22 -22z"/>
<path d="M2810 4436 c0 -26 21 -29 43 -7 l21 21 -32 0 c-21 0 -32 -5 -32 -14z"/>
<path d="M2882 4417 l-32 -33 28 -27 c18 -18 39 -27 60 -27 27 0 32 4 37 33 4
18 2 45 -4 60 -15 38 -49 35 -89 -6z"/>
<path d="M3030 4416 c-25 -77 33 -115 92 -59 l28 27 -32 33 c-42 44 -73 44
-88 -1z"/>
<path d="M3147 4429 c22 -22 43 -19 43 7 0 9 -11 14 -32 14 l-32 0 21 -21z"/>
<path d="M3366 4442 c-2 -4 -1 -14 4 -22 8 -13 13 -11 32 8 l22 22 -26 0 c-15
0 -29 -4 -32 -8z"/>
<path d="M3436 4419 l-26 -31 21 -26 c11 -15 34 -30 51 -33 26 -6 31 -3 45 26
14 29 14 35 -1 63 -22 42 -55 42 -90 1z"/>
<path d="M3585 4421 c-21 -41 -4 -91 32 -91 29 0 83 35 83 55 0 18 -57 65 -81
65 -10 0 -25 -12 -34 -29z"/>
<path d="M3690 4442 c0 -12 23 -32 37 -32 7 0 13 9 13 20 0 15 -7 20 -25 20
-14 0 -25 -4 -25 -8z"/>
<path d="M3920 4436 c0 -26 21 -29 43 -7 l21 21 -32 0 c-21 0 -32 -5 -32 -14z"/>
<path d="M3988 4416 l-27 -33 27 -26 c15 -14 39 -28 53 -32 22 -5 28 -2 39 25
9 21 10 40 4 63 -8 26 -15 32 -39 34 -23 2 -36 -5 -57 -31z"/>
<path d="M4133 4416 c-14 -44 6 -96 37 -96 23 0 90 49 90 66 0 22 -56 64 -86
64 -26 0 -32 -5 -41 -34z"/>
<path d="M4250 4425 c27 -29 40 -28 51 3 8 20 5 22 -33 22 l-41 0 23 -25z"/>
<path d="M1143 4365 c0 -7 6 -11 14 -8 7 3 13 6 13 8 0 2 -6 5 -13 8 -8 3 -14
-1 -14 -8z"/>
<path d="M4263 4358 c-25 -33 -24 -38 7 -38 27 0 31 3 28 22 -4 26 -21 34 -35
16z"/>
<path d="M1183 4345 c-3 -9 -3 -18 -1 -21 3 -3 8 4 11 16 6 23 -1 27 -10 5z"/>
<path d="M1705 4350 c-10 -16 4 -30 32 -30 25 0 26 0 8 20 -20 22 -31 25 -40
10z"/>
<path d="M2042 4348 c-19 -19 -14 -28 13 -28 18 0 25 5 25 20 0 22 -20 26 -38
8z"/>
<path d="M2260 4340 c0 -15 7 -20 25 -20 27 0 32 9 13 28 -18 18 -38 14 -38
-8z"/>
<path d="M2594 4339 c-19 -21 -19 -21 11 -17 18 2 30 9 30 17 0 23 -20 23 -41
0z"/>
<path d="M2815 4350 c-10 -16 4 -30 32 -30 25 0 26 0 8 20 -20 22 -31 25 -40
10z"/>
<path d="M3152 4348 c-19 -19 -14 -28 14 -28 18 0 25 5 22 17 -4 21 -21 26
-36 11z"/>
<path d="M3370 4340 c0 -15 7 -20 27 -20 25 0 26 0 8 20 -10 11 -22 20 -27 20
-4 0 -8 -9 -8 -20z"/>
<path d="M3702 4348 c-19 -19 -14 -28 13 -28 18 0 25 5 25 20 0 22 -20 26 -38
8z"/>
<path d="M3927 4353 c-17 -17 -5 -33 25 -33 30 0 31 0 13 20 -19 21 -28 24
-38 13z"/>
<path d="M3545 4328 c-5 -21 -13 -28 -33 -28 -24 0 -24 -1 -8 -19 9 -10 14
-25 10 -34 -5 -13 0 -16 23 -15 15 0 39 -3 52 -7 22 -7 22 -6 11 15 -9 16 -9
25 -1 33 16 16 13 27 -8 27 -12 0 -23 10 -29 28 l-10 27 -7 -27z"/>
<path d="M4096 4325 c-4 -16 -13 -25 -26 -25 -11 0 -20 -4 -20 -10 0 -5 5 -10
11 -10 7 0 9 -11 6 -30 -6 -28 -5 -29 19 -20 17 7 32 6 46 -1 25 -13 33 -6 20
18 -8 13 -7 22 5 35 15 17 14 18 -6 18 -14 0 -25 9 -31 25 -5 14 -11 25 -14
25 -2 0 -7 -11 -10 -25z"/>
<path d="M1881 4322 c-7 -12 -21 -22 -33 -22 -21 0 -21 -1 -6 -16 13 -13 14
-23 7 -42 -8 -21 -7 -23 8 -17 22 9 40 9 71 0 22 -7 22 -6 10 20 -10 23 -10
29 0 33 19 6 14 22 -6 22 -11 0 -23 10 -29 22 l-10 23 -12 -23z"/>
<path d="M2435 4320 c-3 -11 -15 -20 -26 -20 -10 0 -19 -4 -19 -10 0 -5 5 -10
11 -10 7 0 9 -11 5 -30 -5 -28 -4 -30 14 -20 12 7 27 7 45 0 24 -9 26 -8 23
14 -1 13 3 31 11 40 12 14 10 16 -13 16 -16 0 -26 6 -26 14 0 24 -18 28 -25 6z"/>
<path d="M1474 4254 c-36 -44 -37 -47 -19 -60 25 -19 39 -18 58 4 18 19 24
102 8 102 -5 0 -26 -21 -47 -46z"/>
<path d="M1557 4293 c-4 -3 -7 -18 -7 -32 l0 -25 21 21 c12 11 18 26 15 32 -8
12 -19 14 -29 4z"/>
<path d="M1645 4290 c-4 -7 2 -22 14 -34 l22 -21 -3 29 c-3 31 -21 45 -33 26z"/>
<path d="M1705 4291 c-9 -15 6 -89 20 -101 21 -17 65 0 86 33 18 31 18 32 -3
54 -22 24 -91 33 -103 14z"/>
<path d="M1976 4282 c-23 -27 -5 -76 36 -93 45 -18 62 -3 66 60 l3 51 -44 0
c-30 0 -49 -6 -61 -18z"/>
<path d="M2110 4268 l0 -32 23 22 c19 19 20 24 7 32 -25 16 -30 12 -30 -22z"/>
<path d="M2200 4290 c-13 -8 -12 -13 8 -32 l22 -22 0 32 c0 34 -5 38 -30 22z"/>
<path d="M2260 4251 c0 -58 14 -74 60 -65 25 5 36 15 47 42 13 31 12 36 -3 53
-12 13 -31 19 -61 19 l-43 0 0 -49z"/>
<path d="M2537 4282 c-14 -15 -24 -43 -14 -42 22 3 112 39 112 46 0 5 -18 10
-41 12 -29 2 -45 -2 -57 -16z"/>
<path d="M2660 4290 c0 -5 7 -7 15 -4 8 4 15 8 15 10 0 2 -7 4 -15 4 -8 0 -15
-4 -15 -10z"/>
<path d="M3310 4296 c0 -2 7 -6 15 -10 8 -3 15 -1 15 4 0 6 -7 10 -15 10 -8 0
-15 -2 -15 -4z"/>
<path d="M3365 4290 c-3 -6 0 -12 7 -15 110 -40 135 -40 97 1 -24 25 -91 34
-104 14z"/>
<path d="M3639 4279 c-20 -20 -20 -21 -2 -51 21 -37 66 -56 88 -38 10 8 15 31
15 61 l0 49 -40 0 c-27 0 -47 -7 -61 -21z"/>
<path d="M3770 4268 l0 -32 23 22 c19 19 20 24 7 32 -25 16 -30 12 -30 -22z"/>
<path d="M3861 4287 c-8 -11 -6 -18 9 -32 20 -18 20 -17 20 13 0 34 -10 41
-29 19z"/>
<path d="M3920 4257 c0 -82 73 -103 108 -31 14 31 14 35 -3 54 -13 14 -31 20
-62 20 l-43 0 0 -43z"/>
<path d="M4196 4281 c-29 -31 -6 -84 41 -96 38 -9 63 18 63 72 l0 43 -43 0
c-31 0 -49 -6 -61 -19z"/>
<path d="M4320 4270 c0 -35 10 -38 34 -11 21 23 14 41 -15 41 -14 0 -19 -7
-19 -30z"/>
<path d="M4805 4261 c-6 -11 13 -26 22 -17 4 3 0 6 -8 6 -11 0 -11 2 1 10 9 6
10 10 3 10 -6 0 -14 -4 -18 -9z"/>
<path d="M1588 4233 c-15 -16 -28 -41 -30 -56 -2 -24 2 -31 27 -41 24 -10 36
-10 63 1 43 17 42 49 -1 91 l-33 32 -26 -27z"/>
<path d="M2137 4225 c-37 -46 -33 -76 11 -89 76 -21 111 42 54 97 -15 15 -30
27 -33 27 -2 0 -17 -16 -32 -35z"/>
<path d="M3802 4227 c-40 -41 -42 -74 -5 -88 15 -6 42 -8 60 -4 29 5 33 10 33
39 0 22 -9 40 -28 59 l-28 27 -32 -33z"/>
<path d="M4348 4225 c-38 -44 -36 -72 3 -89 24 -10 40 -11 65 -3 29 9 34 15
34 42 0 31 -43 86 -66 84 -5 0 -21 -15 -36 -34z"/>
<path d="M1326 4222 c-3 -5 1 -9 9 -9 8 0 12 4 9 9 -3 4 -7 8 -9 8 -2 0 -6 -4
-9 -8z"/>
<path d="M1852 4192 c-69 -34 -65 -138 6 -168 78 -32 148 36 121 118 -9 29
-20 40 -51 52 -21 9 -39 16 -41 15 -1 0 -17 -8 -35 -17z"/>
<path d="M4072 4194 c-21 -9 -38 -27 -48 -49 -12 -30 -12 -39 1 -73 20 -49 61
-67 116 -50 82 24 83 139 3 173 -20 8 -37 15 -38 14 0 0 -16 -7 -34 -15z"/>
<path d="M2390 4185 c-14 -8 -20 -14 -14 -15 5 0 19 7 30 15 24 18 16 19 -16
0z"/>
<path d="M3594 4186 c11 -9 24 -16 30 -16 12 0 7 5 -24 19 -24 11 -24 11 -6
-3z"/>
<path d="M1359 4097 c-26 -40 -43 -76 -38 -81 5 -5 24 -3 46 5 51 19 78 71 61
117 -7 18 -15 32 -18 32 -3 0 -26 -33 -51 -73z"/>
<path d="M1511 4157 c-10 -13 -18 -14 -33 -6 -25 14 -33 6 -19 -19 7 -14 8
-29 1 -46 -9 -24 -8 -25 20 -19 19 3 30 1 30 -6 0 -6 5 -11 10 -11 6 0 10 9
10 19 0 11 9 23 22 27 l21 6 -20 17 c-12 9 -23 25 -25 35 -3 18 -4 18 -17 3z"/>
<path d="M1700 4152 c0 -12 -10 -27 -22 -33 -22 -12 -21 -12 6 -26 17 -9 25
-20 22 -29 -6 -16 10 -19 19 -4 3 6 17 7 31 4 25 -6 30 1 15 25 -6 9 -5 24 0
39 12 30 6 37 -18 24 -13 -8 -22 -7 -35 5 -17 15 -18 14 -18 -5z"/>
<path d="M2061 4157 c-10 -12 -18 -14 -31 -7 -28 15 -30 13 -20 -16 6 -14 7
-37 4 -51 -6 -22 -4 -24 15 -18 13 4 28 2 36 -5 12 -10 15 -9 15 8 0 13 10 24
28 30 l27 10 -27 10 c-15 6 -28 20 -30 33 -3 20 -4 21 -17 6z"/>
<path d="M2260 4151 c0 -14 -9 -25 -27 -32 -26 -10 -26 -12 -8 -19 14 -5 34 2
67 22 54 33 60 41 23 32 -15 -4 -32 -1 -40 6 -13 10 -15 9 -15 -9z"/>
<path d="M3728 4158 c-6 -15 -12 -16 -34 -8 -36 14 -41 7 -9 -14 63 -41 71
-44 90 -36 19 7 18 8 -7 18 -16 7 -28 20 -30 34 -3 20 -4 20 -10 6z"/>
<path d="M3920 4151 c0 -14 -9 -25 -27 -32 l-28 -11 28 -10 c17 -6 27 -17 27
-30 0 -17 2 -18 15 -8 12 10 21 10 40 2 28 -13 30 -10 14 19 -7 14 -7 29 0 50
10 30 6 35 -19 19 -10 -6 -20 -4 -32 7 -17 15 -18 15 -18 -6z"/>
<path d="M4281 4157 c-10 -13 -18 -14 -33 -6 -25 14 -31 8 -20 -22 5 -13 6
-34 1 -46 -7 -21 -6 -22 21 -16 19 3 30 1 30 -6 0 -6 5 -11 10 -11 6 0 10 9
10 19 0 12 10 23 28 29 l27 10 -27 10 c-15 6 -28 20 -30 33 -3 20 -4 21 -17 6z"/>
<path d="M4470 4152 c0 -11 -12 -24 -27 -32 l-28 -13 28 -9 c20 -7 27 -16 27
-35 0 -25 1 -25 19 -9 16 14 23 15 41 6 28 -15 35 -8 20 20 -8 16 -9 30 -1 52
13 38 9 43 -19 28 -16 -9 -25 -9 -33 -1 -16 16 -27 13 -27 -7z"/>
<path d="M2440 4090 c-9 -6 -10 -10 -3 -10 6 0 15 5 18 10 8 12 4 12 -15 0z"/>
<path d="M1572 4078 c-30 -15 -23 -51 17 -91 l28 -28 31 26 c41 34 44 76 7 93
-31 14 -53 14 -83 0z"/>
<path d="M2133 4080 c-16 -7 -23 -18 -23 -38 0 -16 3 -32 6 -35 7 -7 94 52 94
64 0 18 -42 23 -77 9z"/>
<path d="M2393 4078 c1 -6 -4 -13 -12 -16 -9 -3 -11 0 -6 8 8 13 -17 2 -63
-28 -20 -13 -21 -17 -9 -24 11 -5 32 2 66 23 28 18 51 33 51 34 0 2 -7 5 -15
9 -8 3 -14 0 -12 -6z m-43 -38 c-8 -5 -17 -7 -19 -4 -3 3 1 9 9 14 8 5 17 7
19 4 3 -3 -1 -9 -9 -14z"/>
<path d="M3800 4080 c-16 -10 -18 -8 34 -49 44 -35 56 -33 56 10 0 22 -6 32
-26 39 -31 12 -45 12 -64 0z"/>
<path d="M4343 4078 c-33 -16 -29 -49 11 -87 l33 -32 32 26 c41 35 43 81 5 95
-32 12 -53 12 -81 -2z"/>
<path d="M4991 4064 c0 -11 3 -14 6 -6 3 7 2 16 -1 19 -3 4 -6 -2 -5 -13z"/>
<path d="M1449 4025 c-35 -19 -46 -61 -23 -86 12 -13 31 -19 61 -19 l43 0 0
43 c0 30 -6 49 -18 60 -22 20 -29 20 -63 2z"/>
<path d="M1718 4023 c-10 -12 -13 -32 -10 -60 4 -43 4 -43 45 -43 23 0 48 7
58 16 15 14 16 20 4 46 -12 29 -46 57 -71 58 -6 0 -18 -8 -26 -17z"/>
<path d="M2010 4029 c-15 -5 -31 -23 -38 -41 -10 -27 -9 -35 5 -50 35 -39 103
-10 103 44 0 21 -27 60 -41 57 -2 0 -15 -5 -29 -10z"/>
<path d="M3937 4022 c-10 -10 -17 -30 -17 -44 0 -51 69 -78 104 -40 24 27 5
77 -36 91 -17 6 -32 11 -33 11 -1 0 -9 -8 -18 -18z"/>
<path d="M4219 4025 c-35 -19 -46 -61 -23 -86 12 -13 31 -19 61 -19 l43 0 0
43 c0 30 -6 49 -18 60 -22 20 -29 20 -63 2z"/>
<path d="M4487 4022 c-10 -11 -17 -36 -17 -60 l0 -42 48 0 c35 0 54 5 66 19
16 18 16 22 2 50 -27 51 -70 65 -99 33z"/>
<path d="M2215 3971 c-101 -80 -275 -281 -244 -281 6 0 9 -7 5 -15 -10 -26 2
-16 26 23 12 20 22 41 20 45 -1 5 2 6 7 2 12 -7 33 29 23 40 -4 5 -2 6 3 2 6
-3 46 31 90 75 44 44 99 94 123 111 30 22 39 33 30 39 -19 11 -17 12 -83 -41z
m-215 -261 c-6 -12 -14 -20 -17 -17 -2 3 1 14 8 26 17 26 24 19 9 -9z"/>
<path d="M1362 3989 c-13 -5 -35 -6 -49 -3 -22 6 -24 4 -18 -15 4 -13 2 -28
-5 -36 -10 -12 -9 -15 8 -15 13 0 24 -10 30 -27 l9 -28 13 28 c8 16 21 27 33
27 16 0 17 3 7 15 -7 8 -10 25 -6 40 4 14 5 25 4 24 -2 0 -13 -4 -26 -10z"/>
<path d="M1840 3992 c0 -4 4 -14 9 -21 6 -9 6 -22 0 -33 -7 -14 -6 -18 5 -18
9 0 22 -12 30 -27 l14 -28 7 28 c5 18 14 27 27 27 17 0 18 2 8 15 -10 12 -10
21 -2 40 13 28 10 30 -19 14 -14 -7 -29 -7 -50 0 -16 5 -29 7 -29 3z"/>
<path d="M4062 3975 c8 -19 8 -28 -2 -40 -10 -13 -9 -15 8 -15 13 0 24 -10 30
-27 l10 -28 11 28 c7 18 18 27 32 27 21 0 21 1 6 18 -11 12 -13 22 -7 32 16
25 11 29 -19 19 -21 -7 -36 -7 -50 0 -29 16 -32 14 -19 -14z"/>
<path d="M1550 3952 c0 -25 4 -32 19 -32 31 0 33 15 6 40 l-25 23 0 -31z"/>
<path d="M1656 3961 c-19 -21 -14 -41 10 -41 9 0 14 11 14 30 0 35 -1 36 -24
11z"/>
<path d="M4320 3952 c0 -25 4 -32 20 -32 11 0 20 6 20 13 0 8 -9 22 -20 32
-20 18 -20 17 -20 -13z"/>
<path d="M4427 3962 c-23 -25 -21 -42 3 -42 16 0 20 7 20 30 0 35 -2 36 -23
12z"/>
<path d="M5193 3958 c-17 -24 -14 -67 6 -78 28 -15 41 -12 41 8 0 13 2 14 9 4
6 -10 11 -10 21 3 22 27 1 69 -36 73 -17 2 -35 -3 -41 -10z m17 -59 c0 -5 -4
-9 -8 -9 -5 0 -9 7 -9 15 0 8 4 12 9 9 4 -3 8 -9 8 -15z"/>
<path d="M1600 3905 c-7 -8 -21 -15 -31 -15 -12 0 -19 -7 -19 -19 0 -11 -4
-23 -10 -26 -6 -4 -4 -15 6 -30 9 -13 13 -29 9 -35 -4 -6 4 -10 17 -10 13 0
30 -6 37 -12 11 -10 14 -10 18 0 3 6 16 12 29 12 16 0 24 6 24 18 0 10 5 23
12 30 9 9 9 15 0 24 -7 7 -12 20 -12 30 0 10 -7 18 -17 18 -9 0 -24 7 -33 15
-15 14 -18 14 -30 0z"/>
<path d="M4370 3905 c-7 -8 -21 -15 -31 -15 -12 0 -19 -7 -19 -19 0 -11 -4
-23 -10 -26 -6 -4 -4 -15 6 -30 9 -13 13 -29 9 -35 -4 -6 4 -10 17 -10 13 0
29 -5 35 -11 8 -8 13 -8 17 0 4 6 18 11 32 11 16 0 24 6 24 18 0 10 5 23 12
30 9 9 9 15 0 24 -7 7 -12 20 -12 30 0 10 -7 18 -17 18 -9 0 -24 7 -33 15 -15
14 -18 14 -30 0z"/>
<path d="M4539 3864 l-30 -31 28 -31 c20 -24 36 -32 59 -32 28 0 34 5 44 34 9
28 8 40 -5 65 -20 40 -54 38 -96 -5z"/>
<path d="M1233 3878 c-5 -7 -14 -25 -20 -39 -10 -23 -8 -30 12 -49 34 -32 77
-24 88 15 13 46 -6 85 -42 85 -15 0 -33 -6 -38 -12z"/>
<path d="M1364 3854 c-15 -80 37 -110 98 -55 l33 30 -29 30 c-21 22 -39 31
-62 31 -30 0 -34 -3 -40 -36z"/>
<path d="M1487 3869 c22 -22 43 -19 43 7 0 9 -11 14 -32 14 l-32 0 21 -21z"/>
<path d="M1700 3881 c0 -5 6 -14 13 -20 11 -8 18 -6 32 9 18 20 17 20 -13 20
-18 0 -32 -4 -32 -9z"/>
<path d="M1778 3873 c-30 -36 -31 -44 -2 -74 38 -40 76 -39 91 1 18 47 -2 90
-43 90 -17 0 -38 -8 -46 -17z"/>
<path d="M1921 3863 c-6 -17 -8 -40 -3 -57 l8 -28 37 46 c42 50 41 66 -2 66
-22 0 -31 -7 -40 -27z"/>
<path d="M4006 3881 c-3 -4 11 -30 32 -56 l37 -48 8 29 c13 46 -6 84 -42 84
-16 0 -32 -4 -35 -9z"/>
<path d="M4135 3857 c-4 -18 -2 -45 4 -60 14 -36 46 -35 91 3 l35 29 -29 30
c-21 22 -39 31 -62 31 -29 0 -34 -4 -39 -33z"/>
<path d="M4258 3868 c19 -20 24 -21 32 -8 16 25 12 30 -22 30 l-32 0 22 -22z"/>
<path d="M4470 3876 c0 -26 21 -29 43 -7 l21 21 -32 0 c-21 0 -32 -5 -32 -14z"/>
<path d="M5150 3845 c13 -14 26 -25 28 -25 3 0 -5 11 -18 25 -13 14 -26 25
-28 25 -3 0 5 -11 18 -25z"/>
<path d="M1485 3790 c-18 -20 -18 -20 14 -20 25 0 32 4 29 17 -5 25 -22 26
-43 3z"/>
<path d="M1706 3794 c-9 -23 -8 -24 26 -24 30 0 31 0 13 20 -22 24 -31 25 -39
4z"/>
<path d="M4255 3790 c-18 -20 -18 -20 14 -20 25 0 32 4 29 17 -5 25 -22 26
-43 3z"/>
<path d="M4477 3803 c-17 -17 -5 -33 25 -33 30 0 31 0 13 20 -19 21 -28 24
-38 13z"/>
<path d="M5210 3785 c13 -14 26 -25 28 -25 3 0 -5 11 -18 25 -13 14 -26 25
-28 25 -3 0 5 -11 18 -25z"/>
<path d="M4651 3778 c-6 -18 -18 -28 -31 -28 -22 0 -27 -15 -9 -26 6 -3 9 -19
5 -35 -5 -27 -4 -27 24 -18 20 7 35 7 50 -1 28 -15 35 -8 20 20 -9 18 -8 25 6
41 16 18 16 19 -9 19 -19 0 -28 7 -35 28 l-10 27 -11 -27z"/>
<path d="M1185 3780 c-3 -5 1 -10 10 -10 9 0 13 5 10 10 -3 6 -8 10 -10 10 -2
0 -7 -4 -10 -10z"/>
<path d="M1326 3767 c-4 -19 -13 -27 -27 -27 -18 0 -19 -3 -9 -15 6 -8 9 -23
5 -36 -6 -19 -4 -20 23 -14 18 3 40 1 53 -5 20 -11 21 -10 15 15 -4 16 -2 33
5 41 9 11 7 14 -10 14 -11 0 -21 4 -21 8 0 5 -6 16 -14 27 -12 17 -13 17 -20
-8z"/>
<path d="M1881 3768 c-7 -19 -18 -28 -33 -28 -17 0 -19 -3 -9 -9 13 -9 12 -23
-5 -66 -14 -35 22 1 51 51 19 33 23 49 16 62 -8 15 -11 14 -20 -10z"/>
<path d="M4096 3775 c-4 -11 5 -35 25 -66 35 -55 42 -60 33 -24 -4 15 -1 32 6
40 10 12 9 15 -9 15 -11 0 -21 4 -21 8 0 5 -6 16 -13 26 -13 18 -14 18 -21 1z"/>
<path d="M4796 3783 c-11 -11 -6 -23 9 -23 8 0 15 4 15 9 0 13 -16 22 -24 14z"/>
<path d="M4747 3732 c-10 -10 -17 -24 -17 -30 0 -49 65 -96 101 -74 10 6 20 8
23 3 9 -14 -40 -34 -64 -26 -21 7 -22 5 -16 -16 10 -33 10 -41 2 -66 -7 -21
-5 -22 22 -17 17 4 32 1 36 -5 11 -18 26 -13 26 8 0 11 9 23 20 26 25 8 26 21
1 35 -14 7 -19 20 -19 52 0 24 -7 62 -17 86 -15 37 -21 42 -50 42 -18 0 -39
-8 -48 -18z"/>
<path d="M1160 3714 c-15 -37 -12 -59 8 -77 28 -26 78 -3 93 42 10 30 9 36 -7
48 -10 7 -33 13 -51 13 -27 0 -35 -5 -43 -26z"/>
<path d="M1420 3725 c-12 -14 -8 -49 7 -70 5 -6 21 -16 37 -23 41 -18 66 6 66
65 l0 43 -49 0 c-31 0 -53 -5 -61 -15z"/>
<path d="M1550 3715 c0 -27 9 -32 28 -13 18 18 14 38 -8 38 -15 0 -20 -7 -20
-25z"/>
<path d="M1640 3727 c0 -14 20 -37 32 -37 4 0 8 11 8 25 0 18 -5 25 -20 25
-11 0 -20 -6 -20 -13z"/>
<path d="M1704 3698 c4 -23 14 -50 22 -59 23 -25 72 -6 89 35 19 45 -2 66 -68
66 l-50 0 7 -42z"/>
<path d="M4190 3725 c-12 -14 -8 -49 7 -70 5 -6 21 -16 37 -23 41 -18 66 6 66
65 l0 43 -49 0 c-31 0 -53 -5 -61 -15z"/>
<path d="M4320 3715 c0 -27 9 -32 28 -13 18 18 14 38 -8 38 -15 0 -20 -7 -20
-25z"/>
<path d="M4410 3727 c0 -14 20 -37 32 -37 4 0 8 11 8 25 0 18 -5 25 -20 25
-11 0 -20 -6 -20 -13z"/>
<path d="M4473 3695 c5 -57 28 -77 69 -63 18 6 34 23 42 42 19 45 -1 66 -67
66 l-49 0 5 -45z"/>
<path d="M5285 3710 c10 -11 20 -20 23 -20 3 0 -3 9 -13 20 -10 11 -20 20 -23
20 -3 0 3 -9 13 -20z"/>
<path d="M1586 3681 c-9 -10 -21 -32 -26 -50 -8 -29 -6 -32 21 -47 25 -12 37
-13 65 -4 28 9 34 17 34 39 0 17 -11 38 -28 54 -33 32 -43 33 -66 8z"/>
<path d="M4346 3666 c-34 -45 -33 -62 5 -81 25 -13 37 -14 65 -5 28 9 34 17
34 39 0 27 -44 81 -67 81 -6 0 -22 -15 -37 -34z"/>
<path d="M1941 3657 c-13 -21 -12 -21 5 -5 10 10 16 20 13 22 -3 3 -11 -5 -18
-17z"/>
<path d="M4628 3643 c-78 -31 -79 -148 -1 -174 27 -9 45 -9 74 0 33 10 40 18
51 53 10 36 10 45 -8 75 -26 48 -68 65 -116 46z"/>
<path d="M5403 3653 c4 -3 1 -13 -6 -22 -11 -14 -10 -14 5 -2 16 12 16 31 1
31 -4 0 -3 -3 0 -7z"/>
<path d="M1290 3636 c-38 -21 -54 -74 -36 -118 20 -48 62 -65 117 -49 103 31
70 183 -40 181 -9 -1 -27 -7 -41 -14z"/>
<path d="M1800 3591 c-11 -23 -17 -41 -12 -41 10 0 45 70 38 77 -2 3 -14 -13
-26 -36z"/>
<path d="M4171 3625 c0 -5 6 -21 14 -35 8 -14 14 -20 14 -15 0 6 -6 21 -14 35
-8 14 -14 21 -14 15z"/>
<path d="M1150 3596 c0 -9 -12 -22 -26 -28 l-25 -12 25 -13 c16 -8 26 -22 26
-35 0 -19 1 -20 18 -5 13 12 22 13 35 5 25 -13 30 -6 16 24 -8 19 -8 31 0 46
16 30 14 33 -15 22 -19 -7 -31 -7 -40 1 -11 9 -14 8 -14 -5z"/>
<path d="M1454 3589 c10 -33 10 -40 2 -67 -7 -22 -6 -23 14 -12 18 9 25 8 41
-6 18 -16 19 -16 19 4 0 13 11 27 28 36 l27 14 -27 7 c-18 5 -28 14 -28 26 0
21 -11 24 -27 8 -8 -8 -17 -8 -33 1 -21 11 -22 11 -16 -11z"/>
<path d="M1700 3591 c0 -12 -10 -23 -27 -28 l-28 -10 28 -6 c21 -6 27 -13 27
-33 0 -21 3 -24 14 -15 7 6 24 10 37 9 21 -3 24 1 25 32 0 19 4 43 8 53 9 20
3 21 -26 6 -14 -8 -23 -8 -31 0 -16 16 -27 13 -27 -8z"/>
<path d="M4220 3600 c0 -6 5 -20 10 -31 8 -13 7 -25 -1 -40 -10 -20 -9 -21 12
-16 15 4 30 0 41 -10 17 -15 18 -14 18 9 0 20 7 28 28 33 l27 7 -27 10 c-18 6
-28 17 -28 29 0 21 -11 24 -27 8 -8 -8 -17 -8 -32 0 -15 9 -21 9 -21 1z"/>
<path d="M4470 3591 c0 -12 -10 -21 -27 -26 l-28 -7 25 -11 c28 -13 41 -27 34
-39 -3 -4 -1 -8 5 -8 5 0 12 4 16 10 4 6 15 6 32 -1 24 -9 25 -8 18 13 -8 29
-8 37 1 67 6 22 5 22 -16 11 -16 -9 -25 -9 -33 -1 -16 16 -27 13 -27 -8z"/>
<path d="M4871 3594 c0 -11 3 -14 6 -6 3 7 2 16 -1 19 -3 4 -6 -2 -5 -13z"/>
<path d="M1577 3524 c-23 -12 -26 -19 -21 -42 4 -15 18 -39 32 -55 l26 -27 33
32 c42 40 43 72 3 93 -35 18 -38 18 -73 -1z"/>
<path d="M4347 3524 c-24 -13 -28 -20 -22 -42 3 -15 18 -39 33 -55 l26 -27 33
32 c42 40 43 72 3 93 -35 18 -38 18 -73 -1z"/>
<path d="M4877 3524 c-16 -16 -6 -62 18 -84 28 -27 35 -52 7 -27 -27 24 -32
21 -32 -19 0 -36 1 -36 31 -30 27 5 30 4 19 -9 -7 -8 -21 -15 -31 -15 -13 0
-19 -7 -19 -23 0 -13 -5 -28 -11 -34 -8 -8 -8 -13 0 -17 6 -4 11 -16 11 -27 0
-11 8 -22 18 -25 36 -12 62 -28 62 -38 -1 -6 -18 -28 -39 -49 -30 -31 -37 -43
-33 -67 3 -25 11 -32 43 -42 39 -11 53 -28 24 -28 -9 0 -29 -7 -46 -15 -25
-13 -28 -20 -23 -43 7 -26 71 -109 87 -111 4 -1 7 6 7 15 0 8 -4 12 -10 9 -5
-3 -10 -2 -10 4 0 5 5 11 11 13 16 5 16 263 0 282 -7 8 -8 16 -3 18 22 8 -39
357 -64 365 -5 2 -13 0 -17 -3z"/>
<path d="M1087 3491 c-3 -16 -9 -42 -13 -57 l-7 -29 27 24 c18 17 26 35 26 58
0 42 -25 45 -33 4z"/>
<path d="M1167 3472 c-11 -11 -17 -36 -17 -63 l0 -44 50 3 c27 2 54 10 60 17
17 21 0 65 -34 86 -38 23 -39 23 -59 1z"/>
<path d="M1458 3477 c-18 -7 -32 -23 -39 -45 -15 -44 0 -59 61 -64 l45 -3 3
38 c2 23 -3 48 -13 63 -17 26 -18 27 -57 11z"/>
<path d="M1717 3472 c-20 -22 -24 -116 -5 -110 11 4 46 88 47 116 1 18 -24 15
-42 -6z"/>
<path d="M4246 3482 c-7 -12 27 -113 39 -115 6 -1 11 16 13 38 2 32 -2 45 -21
64 -14 12 -28 18 -31 13z"/>
<path d="M4493 3468 c-10 -11 -17 -35 -18 -59 l0 -39 44 0 c27 0 52 6 62 16
16 15 17 19 2 48 -8 18 -27 37 -43 43 -24 9 -32 8 -47 -9z"/>
<path d="M4778 3479 c-18 -7 -31 -22 -38 -45 -17 -51 7 -76 69 -72 46 3 46 3
48 43 2 29 -3 46 -19 62 -24 26 -22 25 -60 12z"/>
<path d="M1294 3417 c8 -23 8 -31 -1 -34 -19 -7 -16 -21 4 -19 9 0 22 -10 29
-23 l12 -23 11 21 c7 11 21 21 33 21 17 0 18 3 8 15 -7 9 -9 26 -5 45 6 29 6
30 -18 19 -18 -8 -34 -9 -55 -1 l-30 10 12 -31z"/>
<path d="M4610 3437 c0 -6 5 -19 10 -27 6 -10 4 -20 -6 -32 -14 -15 -14 -16 3
-12 14 4 23 -3 32 -23 l13 -28 11 23 c5 12 18 22 29 22 20 0 23 11 7 27 -8 8
-8 17 0 31 16 30 14 32 -20 20 -22 -7 -37 -7 -55 1 -18 8 -24 8 -24 -2z"/>
<path d="M1655 3410 c-19 -21 -14 -50 10 -50 11 0 15 10 15 35 0 41 -1 41 -25
15z"/>
<path d="M1097 3403 c-16 -18 -16 -21 -2 -33 20 -17 27 -9 23 25 -3 27 -3 27
-21 8z"/>
<path d="M1550 3396 c0 -29 17 -43 33 -27 8 8 9 16 1 28 -17 27 -34 27 -34 -1z"/>
<path d="M4320 3398 c0 -31 10 -40 30 -28 13 8 11 13 -7 32 l-23 22 0 -26z"/>
<path d="M4426 3401 c-15 -16 -17 -24 -8 -33 16 -16 35 3 30 32 l-3 22 -19
-21z"/>
<path d="M1057 3344 c-3 -11 -9 -44 -12 -75 -5 -42 -3 -58 8 -67 11 -10 17 -9
27 3 7 8 19 15 26 15 8 0 14 6 14 14 0 7 7 19 15 26 14 12 14 15 0 30 -8 9
-15 24 -15 33 0 10 -8 17 -18 17 -10 0 -23 5 -29 11 -8 8 -12 6 -16 -7z"/>
<path d="M1600 3350 c0 -5 -11 -10 -25 -10 -20 0 -25 -5 -25 -24 0 -14 -5 -28
-11 -32 -8 -4 -8 -9 0 -17 6 -6 11 -18 11 -26 1 -18 73 -56 78 -41 2 6 17 10
33 10 23 0 30 4 28 18 -1 9 1 25 6 35 4 11 3 23 -4 30 -6 6 -11 19 -11 29 0
11 -7 18 -19 18 -11 0 -23 5 -26 10 -3 6 -13 10 -21 10 -8 0 -14 -4 -14 -10z"/>
<path d="M4376 3351 c-4 -6 -18 -11 -32 -11 -19 0 -24 -5 -24 -24 0 -14 -5
-28 -11 -32 -8 -4 -8 -9 0 -17 6 -6 11 -19 11 -29 0 -10 7 -18 17 -18 9 0 24
-7 33 -15 15 -14 18 -14 30 0 7 8 21 15 31 15 12 0 19 7 19 18 0 10 5 23 11
29 8 8 8 13 0 17 -6 4 -11 18 -11 32 0 18 -5 24 -23 24 -13 0 -28 5 -34 11 -8
8 -13 8 -17 0z"/>
<path d="M1701 3323 c0 -25 1 -26 9 -8 12 27 12 35 0 35 -5 0 -10 -12 -9 -27z"/>
<path d="M1150 3326 c0 -26 21 -29 43 -7 l21 21 -32 0 c-21 0 -32 -5 -32 -14z"/>
<path d="M1215 3310 l-29 -30 29 -30 c58 -61 127 -17 95 59 -17 42 -56 42 -95
1z"/>
<path d="M1370 3321 c-5 -11 -10 -29 -10 -41 0 -62 53 -80 102 -33 l28 27 -32
33 c-36 37 -72 43 -88 14z"/>
<path d="M1487 3319 c22 -22 43 -19 43 7 0 9 -11 14 -32 14 l-32 0 21 -21z"/>
<path d="M4286 3325 c4 -8 8 -15 10 -15 2 0 4 7 4 15 0 8 -4 15 -10 15 -5 0
-7 -7 -4 -15z"/>
<path d="M4470 3326 c0 -26 21 -29 43 -7 l21 21 -32 0 c-21 0 -32 -5 -32 -14z"/>
<path d="M4542 3307 l-32 -33 28 -27 c61 -58 128 -15 96 62 -18 42 -50 41 -92
-2z"/>
<path d="M4690 3311 c-29 -71 28 -115 90 -71 37 26 38 39 2 73 -38 37 -76 36
-92 -2z"/>
<path d="M4811 3314 c22 -23 24 -24 36 -8 17 23 8 34 -29 34 l-31 0 24 -26z"/>
<path d="M1157 3253 c-15 -14 -6 -31 18 -35 14 -3 25 -2 25 2 0 12 -36 40 -43
33z"/>
<path d="M4816 3241 c-22 -24 -20 -31 9 -31 18 0 25 5 25 19 0 28 -15 33 -34
12z"/>
<path d="M1491 3236 c-9 -11 -7 -15 9 -19 22 -6 35 7 25 23 -9 14 -20 13 -34
-4z"/>
<path d="M4477 3243 c-14 -13 -6 -21 23 -25 34 -5 37 -1 13 18 -21 15 -27 17
-36 7z"/>
<path d="M1326 3215 c-4 -17 -13 -25 -27 -25 -17 0 -19 -3 -10 -14 7 -8 9 -25
5 -40 -6 -25 -5 -26 21 -16 17 7 32 7 45 0 28 -15 31 -13 24 15 -4 15 -1 32 6
40 10 13 9 15 -9 15 -14 0 -25 9 -31 25 -5 14 -11 25 -14 25 -2 0 -7 -11 -10
-25z"/>
<path d="M4651 3218 c-7 -19 -18 -28 -32 -28 -20 0 -21 -1 -6 -18 12 -13 13
-22 5 -35 -13 -24 -5 -31 20 -18 14 8 29 8 47 1 36 -14 36 -13 23 15 -8 19 -8
28 2 40 10 13 9 15 -8 15 -13 0 -24 10 -30 28 l-10 27 -11 -27z"/>
<path d="M1646 3187 c-17 -13 -17 -15 8 -43 l25 -29 1 43 c0 45 -6 50 -34 29z"/>
<path d="M1087 3182 c-5 -7 26 -52 35 -52 3 0 3 14 0 30 -4 28 -24 40 -35 22z"/>
<path d="M1150 3147 c0 -59 26 -85 69 -67 16 6 35 25 41 41 18 43 -8 69 -67
69 l-43 0 0 -43z"/>
<path d="M1425 3170 c-15 -17 -16 -24 -5 -49 6 -16 25 -35 41 -41 43 -18 69 8
69 67 l0 43 -43 0 c-31 0 -49 -6 -62 -20z"/>
<path d="M1550 3158 l0 -31 25 23 c27 25 25 40 -6 40 -15 0 -19 -7 -19 -32z"/>
<path d="M4320 3158 l0 -32 21 21 c22 22 19 43 -7 43 -9 0 -14 -11 -14 -32z"/>
<path d="M4414 3179 c-3 -6 3 -21 15 -32 l21 -21 0 32 c0 32 -21 45 -36 21z"/>
<path d="M4470 3147 c0 -54 25 -81 63 -72 30 8 41 20 52 53 11 36 -19 62 -72
62 l-43 0 0 -43z"/>
<path d="M4746 3172 c-23 -27 -5 -76 36 -93 45 -18 62 -3 66 60 l3 51 -44 0
c-30 0 -49 -6 -61 -18z"/>
<path d="M4870 3160 c0 -35 10 -38 34 -11 21 23 14 41 -15 41 -14 0 -19 -7
-19 -30z"/>
<path d="M1042 3138 c-7 -7 -12 -34 -12 -60 0 -55 14 -67 59 -52 38 14 41 58
5 95 -31 33 -35 34 -52 17z"/>
<path d="M1576 3117 c-36 -47 -34 -75 7 -92 19 -8 43 -12 53 -9 15 4 20 0 20
-16 0 -17 -5 -20 -23 -15 -35 8 -83 -20 -83 -49 0 -27 44 -86 64 -86 7 0 24
12 38 28 24 25 25 33 24 124 -1 87 -3 99 -25 122 -32 34 -45 33 -75 -7z"/>
<path d="M4354 3118 c-52 -57 -16 -113 58 -92 47 14 49 49 5 92 l-33 32 -30
-32z"/>
<path d="M1296 3085 c-69 -30 -64 -140 8 -170 30 -13 39 -13 71 1 78 32 78
137 1 169 -41 17 -42 17 -80 0z"/>
<path d="M4623 3085 c-21 -9 -37 -26 -47 -50 -14 -32 -14 -39 2 -71 22 -47 67
-67 117 -51 77 23 82 136 8 171 -40 19 -39 19 -80 1z"/>
<path d="M1150 3042 c0 -13 -10 -24 -27 -30 l-28 -9 28 -13 c16 -8 27 -21 27
-33 0 -16 3 -17 14 -8 8 7 25 9 40 5 25 -6 26 -5 16 20 -6 17 -6 35 0 52 10
25 9 26 -16 20 -15 -4 -32 -2 -40 5 -11 9 -14 7 -14 -9z"/>
<path d="M1516 3051 c-5 -8 -19 -11 -38 -7 -26 5 -29 3 -23 -12 10 -22 10 -42
0 -65 -6 -16 -4 -17 19 -11 16 4 32 1 41 -6 12 -10 15 -9 15 9 0 14 8 23 25
27 32 8 32 20 1 28 -15 4 -26 14 -28 29 -2 16 -5 19 -12 8z"/>
<path d="M4470 3042 c0 -12 -9 -23 -20 -27 -11 -3 -20 -10 -20 -15 0 -4 9 -10
20 -13 12 -3 20 -14 20 -27 0 -19 2 -20 15 -10 8 7 25 10 37 7 22 -6 23 -3 23
43 0 46 -1 49 -23 43 -12 -3 -29 0 -37 7 -12 10 -15 9 -15 -8z"/>
<path d="M4770 3055 c0 -2 4 -15 10 -29 6 -17 6 -35 0 -52 -10 -25 -9 -26 16
-20 15 4 32 2 40 -5 11 -9 14 -8 14 5 0 9 11 22 25 28 14 6 25 14 25 18 0 4
-11 12 -25 18 -14 6 -25 19 -25 28 0 14 -3 14 -15 4 -12 -10 -21 -10 -40 -2
-14 7 -25 10 -25 7z"/>
<path d="M4358 2976 c-41 -15 -42 -58 -3 -96 l31 -30 33 34 c40 41 39 73 -4
90 -21 8 -38 9 -57 2z"/>
<path d="M1028 2975 c-8 -9 8 -105 20 -117 9 -9 19 -5 42 17 52 50 35 105 -33
105 -13 0 -26 -2 -29 -5z"/>
<path d="M1167 2912 c-10 -11 -17 -36 -17 -60 l0 -42 43 0 c59 0 85 26 68 68
-11 26 -46 52 -70 52 -4 0 -15 -8 -24 -18z"/>
<path d="M1451 2917 c-14 -6 -29 -25 -34 -40 -13 -41 13 -67 70 -67 l43 0 0
43 c0 30 -6 49 -18 60 -22 20 -29 21 -61 4z"/>
<path d="M4487 2912 c-10 -11 -17 -35 -17 -60 l0 -42 43 0 c68 0 97 44 60 88
-26 31 -65 37 -86 14z"/>
<path d="M4774 2920 c-12 -5 -27 -23 -33 -41 -16 -45 7 -69 66 -69 l43 0 0 48
c0 67 -22 84 -76 62z"/>
<path d="M1291 2867 c9 -21 9 -30 -1 -42 -10 -13 -9 -15 8 -15 13 0 24 -10 30
-27 l10 -28 11 28 c7 18 18 27 32 27 18 0 19 2 9 15 -7 9 -10 25 -6 41 6 23 5
25 -11 19 -22 -9 -40 -9 -71 0 -21 7 -22 6 -11 -18z"/>
<path d="M4610 2884 c0 -5 5 -16 10 -24 6 -10 4 -20 -7 -32 -15 -17 -15 -18 6
-18 14 0 25 -9 32 -27 l11 -28 10 28 c6 17 17 27 30 27 17 0 18 2 8 15 -10 12
-10 21 -1 42 11 24 10 25 -11 18 -30 -9 -49 -9 -70 0 -10 4 -18 3 -18 -1z"/>
<path d="M1652 2857 c-28 -30 -28 -33 6 -51 23 -13 24 -15 7 -16 -12 0 -26 5
-33 12 -9 9 -15 9 -24 0 -7 -7 -22 -12 -35 -12 -17 0 -23 -6 -23 -23 0 -13 -5
-28 -12 -35 -9 -9 -9 -15 0 -24 7 -7 12 -20 12 -30 0 -10 7 -18 17 -18 9 0 24
-7 33 -15 15 -14 18 -14 30 0 7 8 21 15 31 15 12 0 19 7 19 18 0 10 4 22 9 28
6 5 5 41 -2 92 l-12 83 -23 -24z"/>
<path d="M1098 2846 c-17 -24 -15 -36 8 -36 6 0 14 14 16 30 5 36 -1 37 -24 6z"/>
<path d="M1550 2840 c0 -23 5 -30 19 -30 30 0 34 17 11 40 -27 27 -30 25 -30
-10z"/>
<path d="M4320 2842 c0 -21 5 -32 14 -32 26 0 29 21 7 43 l-21 21 0 -32z"/>
<path d="M4426 2851 c-19 -21 -14 -41 10 -41 9 0 14 11 14 30 0 35 -1 36 -24
11z"/>
<path d="M4873 2844 c0 -28 22 -43 39 -26 9 9 7 17 -7 32 -24 27 -32 25 -32
-6z"/>
<path d="M1050 2796 c-8 -11 -10 -32 -5 -68 10 -77 15 -92 28 -79 6 6 19 11
29 11 11 0 18 7 18 19 0 10 7 24 15 31 14 12 14 15 0 30 -8 9 -15 24 -15 34 0
10 -5 14 -11 11 -5 -4 -18 0 -28 9 -16 15 -20 15 -31 2z"/>
<path d="M4371 2796 c-7 -8 -19 -12 -27 -9 -8 3 -16 -3 -20 -13 -3 -11 -10
-27 -15 -36 -5 -11 -5 -19 1 -23 6 -3 10 -17 10 -31 0 -18 5 -24 23 -24 13 0
28 -5 34 -11 8 -8 13 -8 17 0 4 6 18 11 32 11 19 0 24 5 24 24 0 14 4 28 10
31 6 4 6 12 1 23 -5 9 -12 25 -15 35 -3 10 -12 17 -19 14 -6 -2 -19 2 -28 10
-14 12 -18 11 -28 -1z"/>
<path d="M4925 2800 c-3 -5 -15 -10 -26 -10 -11 0 -22 -8 -25 -17 -3 -10 -10
-26 -15 -35 -5 -11 -5 -19 1 -23 6 -3 10 -15 10 -26 0 -11 8 -22 18 -26 9 -3
24 -12 33 -20 22 -18 26 -7 35 92 6 65 5 75 -9 75 -9 0 -19 -4 -22 -10z"/>
<path d="M1150 2772 c0 -28 11 -34 32 -15 25 22 23 33 -7 33 -18 0 -25 -5 -25
-18z"/>
<path d="M1219 2754 l-30 -31 26 -32 c34 -40 76 -43 93 -6 16 35 15 56 -3 82
-21 29 -49 25 -86 -13z"/>
<path d="M1366 2755 c-10 -24 -10 -36 0 -60 18 -43 51 -44 92 -2 l32 33 -31
30 c-41 39 -77 39 -93 -1z"/>
<path d="M1470 2785 c0 -3 9 -15 19 -26 22 -24 41 -18 41 12 0 14 -7 19 -30
19 -16 0 -30 -2 -30 -5z"/>
<path d="M4474 2778 c-12 -19 13 -30 35 -16 11 7 21 15 21 18 0 10 -50 8 -56
-2z"/>
<path d="M4542 2757 l-32 -33 33 -32 c43 -42 74 -42 91 0 11 26 11 37 1 62
-19 44 -52 45 -93 3z"/>
<path d="M4702 2777 c-19 -24 -24 -59 -12 -88 17 -40 56 -39 95 1 l29 30 -32
33 c-33 34 -64 44 -80 24z"/>
<path d="M4810 2765 c25 -27 40 -25 40 6 0 15 -7 19 -32 19 l-31 0 23 -25z"/>
<path d="M1157 2693 c-17 -17 -5 -33 25 -33 30 0 31 0 13 20 -19 21 -28 24
-38 13z"/>
<path d="M1485 2680 c-18 -20 -18 -20 14 -20 25 0 32 4 29 17 -5 25 -22 26
-43 3z"/>
<path d="M1701 2626 c0 -61 3 -84 16 -98 18 -20 43 -24 43 -7 0 9 -32 113 -50
164 -5 12 -8 -13 -9 -59z"/>
<path d="M4477 2693 c-17 -17 -5 -33 25 -33 30 0 31 0 13 20 -19 21 -28 24
-38 13z"/>
<path d="M4805 2680 c-18 -20 -17 -20 13 -20 25 0 32 4 32 20 0 11 -6 20 -13
20 -8 0 -22 -9 -32 -20z"/>
<path d="M4286 2675 c-3 -8 -1 -15 4 -15 6 0 10 7 10 15 0 8 -2 15 -4 15 -2 0
-6 -7 -10 -15z"/>
<path d="M1326 2662 c-4 -13 -15 -22 -27 -22 -21 0 -26 -15 -8 -26 6 -3 8 -17
5 -30 -6 -22 -4 -23 23 -18 16 3 39 1 51 -6 21 -11 22 -10 15 20 -4 19 -2 36
5 45 10 12 9 15 -8 15 -11 0 -26 10 -34 22 l-15 23 -7 -23z"/>
<path d="M4651 2662 c-7 -12 -21 -22 -33 -22 -21 0 -21 -1 -6 -16 12 -13 14
-23 7 -41 -8 -23 -7 -24 25 -18 19 4 43 2 55 -4 19 -11 20 -10 10 15 -7 19 -6
31 1 38 15 15 12 26 -8 26 -11 0 -23 10 -29 22 l-10 23 -12 -23z"/>
<path d="M1091 2627 c-8 -11 -6 -18 9 -32 20 -18 20 -17 20 13 0 34 -10 41
-29 19z"/>
<path d="M1150 2592 c0 -34 5 -54 18 -65 17 -15 21 -15 52 1 75 38 57 112 -27
112 l-43 0 0 -48z"/>
<path d="M1425 2620 c-25 -27 -11 -67 31 -92 27 -16 32 -16 52 -2 18 12 22 25
22 65 l0 49 -43 0 c-31 0 -49 -6 -62 -20z"/>
<path d="M1550 2610 c0 -34 10 -38 33 -12 13 14 14 21 5 30 -21 21 -38 13 -38
-18z"/>
<path d="M1641 2627 c-8 -11 -5 -19 14 -37 l25 -23 0 36 c0 39 -17 49 -39 24z"/>
<path d="M4275 2628 c-40 -110 -40 -135 1 -97 17 16 24 33 24 60 0 38 -16 62
-25 37z"/>
<path d="M4327 2633 c-10 -9 -9 -53 1 -53 12 0 33 40 27 50 -7 12 -19 13 -28
3z"/>
<path d="M4416 2631 c-7 -11 14 -51 27 -51 5 0 7 12 5 27 -3 28 -22 41 -32 24z"/>
<path d="M4477 2633 c-15 -15 -6 -77 14 -99 17 -19 24 -20 49 -11 16 6 35 25
43 43 15 30 14 33 -7 53 -22 20 -84 29 -99 14z"/>
<path d="M4745 2620 c-15 -17 -16 -23 -5 -50 7 -17 26 -38 42 -46 44 -23 68 2
68 68 l0 48 -43 0 c-31 0 -49 -6 -62 -20z"/>
<path d="M4877 2633 c-8 -8 -9 -63 -1 -63 3 0 12 7 21 15 28 28 27 6 0 -23
-30 -31 -36 -76 -12 -86 11 -4 19 3 26 22 15 38 19 115 7 130 -11 13 -31 16
-41 5z"/>
<path d="M1582 2567 c-41 -42 -41 -72 -1 -92 25 -13 37 -14 65 -5 29 10 34 16
33 43 0 23 -9 39 -33 59 l-33 27 -31 -32z"/>
<path d="M4351 2566 c-41 -42 -39 -74 4 -92 24 -10 37 -10 63 1 43 19 42 51
-1 93 l-33 32 -33 -34z"/>
<path d="M1074 2566 c4 -15 10 -42 13 -58 4 -20 11 -28 22 -26 24 5 15 58 -16
88 l-25 25 6 -29z"/>
<path d="M1302 2533 c-74 -31 -76 -140 -2 -171 52 -21 102 -3 124 46 16 34 16
40 1 75 -8 20 -17 37 -19 37 -2 0 -19 6 -37 14 -29 11 -39 11 -67 -1z"/>
<path d="M4629 2533 c-40 -17 -35 -12 -53 -54 -12 -29 -12 -39 0 -70 28 -69
135 -75 169 -9 20 38 19 59 -3 95 -26 42 -70 56 -113 38z"/>
<path d="M1150 2492 c0 -13 -11 -27 -27 -36 l-28 -14 28 -7 c18 -5 27 -14 27
-27 0 -16 3 -18 14 -9 9 8 21 8 40 1 30 -11 30 -10 15 23 -8 18 -8 30 1 47 14
27 8 35 -17 22 -13 -8 -22 -7 -35 5 -17 15 -18 14 -18 -5z"/>
<path d="M1512 2497 c-11 -12 -19 -14 -39 -6 -23 9 -25 8 -18 -13 9 -32 9 -40
1 -66 -7 -21 -6 -22 20 -10 22 10 28 10 32 0 6 -19 22 -14 22 7 0 12 10 21 27
26 l28 7 -25 13 c-14 7 -27 23 -30 35 -5 20 -7 21 -18 7z"/>
<path d="M1700 2492 c0 -11 -12 -24 -27 -31 l-28 -13 28 -14 c16 -9 27 -23 27
-36 0 -19 1 -20 18 -5 15 13 20 14 42 2 37 -21 40 -18 24 21 -8 20 -11 33 -5
30 5 -3 23 -40 41 -82 23 -55 29 -79 21 -87 -17 -17 -13 -27 9 -27 13 0 22 -9
26 -25 6 -24 24 -35 24 -15 0 6 4 10 10 10 6 0 6 -9 0 -25 -7 -17 -5 -35 6
-60 14 -33 17 -35 59 -33 50 1 53 -7 -25 89 -39 49 -74 101 -108 159 -5 8 -24
46 -41 83 -27 55 -36 67 -51 62 -10 -3 -21 -1 -25 5 -10 16 -25 12 -25 -8z"/>
<path d="M4281 2497 c-10 -12 -18 -14 -31 -7 -23 12 -35 -2 -22 -27 5 -10 6
-27 1 -38 -12 -32 -10 -36 12 -24 15 8 24 8 32 0 17 -17 27 -13 27 9 0 13 9
22 26 26 l27 7 -24 13 c-13 7 -26 22 -29 34 -5 20 -7 21 -19 7z"/>
<path d="M4470 2492 c0 -13 -10 -27 -26 -35 l-27 -14 27 -7 c17 -4 26 -13 26
-26 0 -22 10 -26 27 -9 8 8 17 8 31 0 31 -17 34 -14 18 17 -9 18 -11 33 -5 43
17 27 11 39 -15 30 -17 -7 -27 -5 -40 7 -15 15 -16 15 -16 -6z"/>
<path d="M4834 2499 c-3 -6 -19 -9 -35 -5 -32 6 -34 4 -18 -26 8 -15 8 -27 0
-46 -14 -30 -9 -37 16 -23 16 8 25 5 46 -15 l27 -24 -6 29 c-5 23 -2 32 15 40
24 13 28 31 6 31 -16 0 -38 34 -28 44 3 3 1 6 -5 6 -6 0 -14 -5 -18 -11z"/>
<path d="M1573 2418 c-14 -7 -23 -20 -23 -34 0 -25 45 -84 64 -84 21 0 66 55
66 81 0 41 -58 61 -107 37z"/>
<path d="M4182 2405 c-17 -37 -14 -45 4 -12 9 16 14 31 11 33 -2 2 -9 -7 -15
-21z"/>
<path d="M4348 2418 c-36 -13 -37 -46 -2 -87 32 -38 43 -39 77 -3 38 40 36 77
-4 91 -37 13 -35 13 -71 -1z"/>
<path d="M4051 2384 c-12 -19 -19 -39 -16 -44 3 -5 0 -12 -6 -16 -8 -5 -9 -3
-4 7 14 24 -9 -2 -57 -66 -52 -69 -183 -200 -245 -245 -26 -19 -40 -36 -37
-45 18 -47 344 273 328 322 -4 13 -3 14 4 5 7 -10 12 -8 24 10 28 43 40 71 29
64 -14 -9 -14 0 -1 25 19 34 3 20 -19 -17z m-331 -389 c-7 -8 -18 -15 -24 -15
-6 0 -2 7 8 15 25 19 32 19 16 0z"/>
<path d="M4871 2404 c0 -11 3 -14 6 -6 3 7 2 16 -1 19 -3 4 -6 -2 -5 -13z"/>
<path d="M1165 2360 c-15 -17 -17 -27 -9 -58 8 -34 12 -37 50 -40 54 -4 70 14
54 62 -8 25 -20 37 -42 45 -17 6 -32 11 -33 11 -1 0 -10 -9 -20 -20z"/>
<path d="M1459 2369 c-15 -6 -33 -23 -40 -41 -18 -45 -3 -62 60 -66 l51 -3 0
44 c0 30 -6 49 -18 60 -10 10 -20 17 -23 16 -2 0 -16 -5 -30 -10z"/>
<path d="M1716 2361 c-12 -13 -16 -32 -14 -62 3 -43 4 -44 40 -47 40 -3 88 21
88 44 0 26 -23 62 -47 73 -34 15 -47 14 -67 -8z"/>
<path d="M4223 2366 c-22 -10 -33 -23 -38 -46 -10 -44 8 -60 66 -60 l49 0 0
43 c0 30 -6 49 -18 60 -22 20 -19 20 -59 3z"/>
<path d="M4487 2362 c-10 -11 -17 -36 -17 -60 l0 -42 48 0 c65 0 85 21 66 66
-9 21 -24 36 -45 43 -18 6 -33 11 -34 11 -1 0 -9 -8 -18 -18z"/>
<path d="M4773 2368 c-12 -6 -27 -26 -34 -45 -9 -29 -8 -37 7 -54 10 -11 30
-19 50 -19 29 0 34 4 50 45 16 43 16 46 -1 65 -20 22 -39 24 -72 8z"/>
<path d="M1292 2315 c8 -19 8 -28 -2 -40 -10 -13 -9 -15 8 -15 13 0 24 -10 30
-27 l9 -28 13 28 c8 16 21 27 33 27 16 0 17 3 8 14 -7 8 -9 25 -5 40 6 26 5
26 -20 15 -20 -9 -32 -9 -51 -1 -35 16 -36 16 -23 -13z"/>
<path d="M4136 2315 c-41 -63 -44 -71 -36 -90 7 -19 8 -18 20 8 8 16 21 27 33
27 16 0 17 3 7 15 -7 8 -10 25 -6 40 8 32 3 32 -18 0z"/>
<path d="M4616 2314 c4 -14 1 -31 -6 -39 -10 -13 -9 -15 9 -15 14 0 25 -9 32
-27 l11 -28 15 28 c9 18 20 26 29 23 17 -7 18 6 2 22 -9 9 -9 18 0 37 13 28
10 30 -19 14 -14 -7 -29 -7 -50 0 -28 10 -29 9 -23 -15z"/>
<path d="M1550 2292 c0 -25 4 -32 19 -32 31 0 33 15 6 40 l-25 23 0 -31z"/>
<path d="M1658 2303 c-22 -24 -23 -39 -3 -47 18 -7 28 13 23 44 -3 22 -3 22
-20 3z"/>
<path d="M4320 2292 c0 -25 4 -32 20 -32 11 0 20 6 20 13 0 8 -9 22 -20 32
-20 18 -20 17 -20 -13z"/>
<path d="M4427 2302 c-23 -25 -21 -42 3 -42 16 0 20 7 20 30 0 35 -2 36 -23
12z"/>
<path d="M1600 2245 c-7 -8 -21 -15 -31 -15 -12 0 -19 -7 -19 -18 0 -10 -5
-23 -12 -30 -9 -9 -9 -15 0 -24 7 -7 12 -20 12 -30 0 -11 7 -18 19 -18 10 0
24 -7 31 -15 12 -14 15 -14 30 0 9 8 24 15 33 15 10 0 17 8 17 18 0 10 5 23
12 30 9 9 9 15 0 24 -7 7 -12 20 -12 30 0 10 -7 18 -17 18 -9 0 -24 7 -33 15
-15 14 -18 14 -30 0z"/>
<path d="M4365 2240 c-3 -5 -15 -10 -26 -10 -12 0 -19 -7 -19 -18 0 -10 -5
-23 -12 -30 -9 -9 -9 -15 0 -24 7 -7 12 -20 12 -30 0 -11 7 -18 19 -18 10 0
24 -7 31 -15 12 -14 15 -14 30 0 9 8 24 15 33 15 10 0 17 8 17 18 0 10 5 23
12 30 9 9 9 15 0 24 -7 7 -12 20 -12 30 0 11 -7 18 -19 18 -11 0 -23 5 -26 10
-3 6 -12 10 -20 10 -8 0 -17 -4 -20 -10z"/>
<path d="M1728 2232 c-28 -3 -38 -25 -17 -38 10 -6 58 32 48 38 -2 2 -16 2
-31 0z"/>
<path d="M1770 2205 l-34 -35 28 -29 c15 -16 41 -31 58 -33 24 -4 32 0 45 25
12 25 13 37 4 69 -10 32 -16 38 -39 38 -19 0 -39 -12 -62 -35z"/>
<path d="M4792 2229 c2 -6 8 -10 13 -10 5 0 11 4 13 10 2 6 -4 11 -13 11 -9 0
-15 -5 -13 -11z"/>
<path d="M1185 2220 c4 -6 11 -8 16 -5 14 9 11 15 -7 15 -8 0 -12 -5 -9 -10z"/>
<path d="M1222 2208 c-21 -23 -21 -25 -4 -58 13 -28 24 -36 49 -38 42 -4 61
30 47 80 -13 43 -58 51 -92 16z"/>
<path d="M1364 2194 c-15 -81 44 -113 101 -54 l29 30 -29 30 c-20 21 -38 30
-61 30 -30 0 -34 -3 -40 -36z"/>
<path d="M1487 2209 c22 -22 43 -19 43 7 0 9 -11 14 -32 14 l-32 0 21 -21z"/>
<path d="M4133 2197 c-24 -79 45 -117 102 -57 l29 30 -29 30 c-20 21 -38 30
-60 30 -27 0 -33 -5 -42 -33z"/>
<path d="M4257 2209 c22 -22 43 -19 43 7 0 9 -11 14 -32 14 l-32 0 21 -21z"/>
<path d="M4470 2216 c0 -26 21 -29 43 -7 l21 21 -32 0 c-21 0 -32 -5 -32 -14z"/>
<path d="M4535 2200 l-29 -30 29 -30 c20 -21 38 -30 60 -30 25 0 33 6 42 30
18 47 -2 90 -42 90 -22 0 -40 -9 -60 -30z"/>
<path d="M4689 2203 c-19 -49 6 -103 47 -103 19 0 29 10 46 46 l23 45 -25 19
c-38 29 -78 26 -91 -7z"/>
<path d="M4038 2175 c-21 -26 -35 -52 -32 -56 3 -5 19 -9 35 -9 36 0 55 38 42
84 l-8 29 -37 -48z"/>
<path d="M1485 2130 c-18 -20 -18 -20 14 -20 25 0 32 4 29 17 -5 25 -22 26
-43 3z"/>
<path d="M1707 2143 c-17 -17 -5 -33 25 -33 30 0 31 0 13 20 -19 21 -28 24
-38 13z"/>
<path d="M4255 2130 c-18 -20 -18 -20 14 -20 25 0 32 4 29 17 -5 25 -22 26
-43 3z"/>
<path d="M4477 2143 c-17 -17 -5 -33 25 -33 30 0 31 0 13 20 -19 21 -28 24
-38 13z"/>
<path d="M1880 2112 c-9 -25 -17 -32 -31 -29 -21 6 -26 -8 -8 -19 6 -3 9 -19
5 -35 -6 -32 -4 -34 24 -19 13 7 27 6 44 -2 32 -14 41 -7 27 20 -8 15 -7 23 4
32 22 18 18 30 -8 30 -16 0 -26 9 -34 28 l-10 27 -13 -33z"/>
<path d="M1326 2107 c-4 -19 -13 -27 -27 -27 -18 0 -19 -3 -9 -15 7 -8 9 -23
5 -36 -6 -19 -4 -21 18 -15 14 3 37 2 51 -4 25 -9 26 -8 20 15 -4 15 -1 32 6
40 10 12 9 15 -9 15 -11 0 -21 4 -21 8 0 5 -6 16 -14 27 -12 17 -13 17 -20 -8z"/>
<path d="M4096 2107 c-4 -19 -13 -27 -27 -27 -18 0 -19 -2 -9 -15 10 -12 10
-21 2 -40 -13 -28 -10 -30 19 -14 14 7 29 7 50 0 28 -10 29 -9 23 15 -4 14 -1
31 6 39 10 12 9 15 -9 15 -11 0 -21 4 -21 8 0 5 -6 16 -14 27 -12 17 -13 17
-20 -8z"/>
<path d="M4649 2107 c-7 -16 -20 -27 -32 -27 -16 0 -17 -3 -7 -15 7 -8 10 -25
6 -40 -6 -23 -5 -24 20 -15 16 7 32 7 44 0 27 -15 32 -13 30 13 -3 35 0 43 9
28 6 -9 9 -5 9 14 0 21 -4 26 -19 22 -14 -4 -24 3 -33 21 l-14 27 -13 -28z"/>
<path d="M730 2105 c-7 -8 -10 -25 -6 -40 11 -42 83 -46 93 -4 3 8 0 7 -7 -3
-13 -21 -50 -24 -68 -6 -13 13 -17 52 -4 44 5 -3 9 1 9 9 0 19 -2 19 -17 0z"/>
<path d="M1975 2070 c-46 -51 44 -141 95 -95 11 10 20 25 20 33 0 9 3 12 7 8
4 -3 6 -24 5 -46 -3 -37 0 -40 33 -54 25 -11 43 -13 60 -6 16 6 25 6 25 0 0
-6 -4 -10 -10 -10 -20 0 -9 -18 15 -24 19 -5 25 -13 25 -33 0 -25 1 -25 18 -9
20 18 30 15 141 -35 24 -11 46 -18 49 -15 3 3 -24 20 -59 36 -112 54 -252 153
-333 239 -34 36 -65 39 -91 11z"/>
<path d="M1420 2065 c-22 -26 -2 -75 37 -92 32 -13 37 -13 54 3 13 12 19 31
19 61 l0 43 -49 0 c-30 0 -53 -5 -61 -15z"/>
<path d="M1550 2048 l0 -31 25 23 c27 25 25 40 -6 40 -15 0 -19 -7 -19 -32z"/>
<path d="M1644 2069 c-3 -6 3 -21 15 -32 l21 -21 0 32 c0 32 -21 45 -36 21z"/>
<path d="M1700 2037 c0 -60 26 -85 70 -67 17 7 38 26 46 42 23 44 -2 68 -68
68 l-48 0 0 -43z"/>
<path d="M3937 2062 c-22 -24 -21 -65 1 -86 45 -40 126 41 86 86 -22 23 -66
23 -87 0z"/>
<path d="M4190 2065 c-21 -25 -2 -74 36 -92 31 -15 35 -15 54 2 14 13 20 31
20 62 l0 43 -49 0 c-30 0 -53 -5 -61 -15z"/>
<path d="M4320 2048 l0 -31 25 23 c27 25 25 40 -6 40 -15 0 -19 -7 -19 -32z"/>
<path d="M4410 2067 c0 -8 9 -22 20 -32 20 -18 20 -17 20 13 0 25 -4 32 -20
32 -11 0 -20 -6 -20 -13z"/>
<path d="M4470 2037 c0 -60 26 -85 70 -67 19 8 36 26 44 44 19 45 -2 66 -66
66 l-48 0 0 -43z"/>
<path d="M1577 2009 c-39 -44 -36 -74 9 -89 81 -27 126 36 66 93 -36 34 -42
34 -75 -4z"/>
<path d="M4346 2009 c-38 -45 -35 -75 10 -89 81 -27 126 36 66 93 -36 34 -44
34 -76 -4z"/>
<path d="M886 1963 c-9 -97 -24 -164 -42 -184 -24 -27 -10 -36 50 -34 31 1 54
-1 52 -4 -2 -3 29 -25 70 -47 41 -23 71 -37 67 -32 -3 6 0 9 8 6 8 -3 14 -11
14 -19 0 -8 9 -13 23 -12 12 2 21 -2 19 -8 -1 -6 5 -14 13 -16 13 -4 13 -3 0
6 -13 9 -13 11 0 11 8 0 -19 20 -60 44 -40 25 -80 42 -88 38 -10 -3 -13 -1 -8
6 7 12 -42 42 -69 42 -8 0 -15 5 -15 10 0 6 5 10 11 10 5 0 8 4 5 9 -4 5 4 7
16 5 13 -2 17 -2 10 2 -6 3 -10 10 -6 15 3 5 -3 9 -12 9 -16 0 -16 1 1 20 10
11 22 17 26 14 5 -3 6 2 3 10 -4 11 -13 7 -36 -20 -16 -19 -33 -34 -37 -34 -3
0 -5 50 -4 110 1 61 0 110 -2 110 -2 0 -6 -30 -9 -67z m1 -125 c-3 -8 -6 -5
-6 6 -1 11 2 17 5 13 3 -3 4 -12 1 -19z m103 -108 c8 -5 11 -10 5 -10 -5 0
-17 5 -25 10 -8 5 -10 10 -5 10 6 0 17 -5 25 -10z m70 -46 c0 -2 -9 0 -20 6
-11 6 -20 13 -20 16 0 2 9 0 20 -6 11 -6 20 -13 20 -16z"/>
<path d="M3820 1961 l-44 -39 30 -6 c17 -4 43 -2 58 4 23 8 27 15 24 42 -2 17
-7 33 -13 34 -5 2 -30 -14 -55 -35z"/>
<path d="M4628 1982 c-47 -18 -73 -74 -57 -121 6 -17 14 -31 17 -31 7 0 102
142 102 152 0 14 -28 14 -62 0z"/>
<path d="M1316 1982 c-5 -8 84 -152 94 -152 3 0 11 14 17 31 18 46 -7 101 -51
117 -38 14 -53 15 -60 4z"/>
<path d="M1849 1979 c-17 -6 -32 -24 -41 -48 -20 -51 -2 -101 47 -124 31 -15
37 -15 74 0 51 20 72 71 51 123 -21 50 -74 70 -131 49z"/>
<path d="M4065 1976 c-70 -30 -64 -139 9 -170 32 -13 40 -13 71 0 76 31 77
145 1 172 -40 15 -43 15 -81 -2z"/>
<path d="M2060 1945 c-9 -11 -17 -12 -32 -4 -27 14 -34 5 -20 -27 8 -17 9 -31
2 -44 -15 -28 -12 -32 19 -25 17 3 32 2 36 -4 10 -18 23 -12 18 8 -3 14 4 22
29 31 l33 13 -27 10 c-19 8 -28 18 -28 34 0 26 -12 30 -30 8z"/>
<path d="M1455 1920 c12 -23 13 -35 4 -51 -13 -26 -6 -34 18 -21 13 8 22 7 35
-5 17 -15 18 -14 18 6 0 14 9 25 28 32 l27 11 -27 10 c-18 6 -28 17 -28 29 0
21 -11 24 -27 8 -8 -8 -17 -8 -31 0 -31 17 -34 14 -17 -19z"/>
<path d="M1700 1930 c0 -13 -9 -22 -26 -26 l-27 -7 27 -14 c15 -8 26 -22 26
-35 0 -20 1 -20 18 -5 12 11 22 13 32 7 26 -16 31 -11 25 24 -4 19 -2 43 4 55
13 24 9 26 -21 10 -14 -8 -23 -8 -31 0 -17 17 -27 13 -27 -9z"/>
<path d="M3920 1933 c0 -12 -11 -23 -27 -30 l-28 -10 28 -11 c18 -8 27 -19 27
-33 0 -20 1 -21 18 -6 13 12 22 13 35 5 24 -13 31 -5 18 20 -8 14 -8 29 -1 47
14 36 13 36 -15 23 -19 -8 -28 -8 -40 2 -13 10 -15 9 -15 -7z"/>
<path d="M4220 1940 c0 -6 5 -20 10 -31 8 -13 7 -25 0 -40 -14 -26 -7 -34 17
-21 13 8 22 7 35 -5 17 -15 18 -14 18 5 0 13 11 27 26 35 l27 14 -27 7 c-17 4
-26 13 -26 26 0 22 -10 26 -27 9 -8 -8 -17 -8 -32 0 -15 9 -21 9 -21 1z"/>
<path d="M4470 1931 c0 -12 -10 -23 -27 -29 l-28 -10 28 -11 c18 -7 27 -18 27
-33 0 -21 1 -21 17 -6 14 15 19 15 45 2 31 -16 34 -11 14 26 -12 21 -12 29 0
52 16 31 13 33 -18 17 -14 -8 -23 -8 -31 0 -16 16 -27 13 -27 -8z"/>
<path d="M3708 1880 c-50 -31 -76 -59 -42 -46 41 17 56 18 65 5 7 -11 9 -9 9
7 0 13 10 25 27 33 22 10 24 14 12 22 -19 12 -18 12 -71 -21z"/>
<path d="M1582 1865 c-43 -19 -42 -51 1 -93 l33 -32 33 34 c41 42 39 74 -4 92
-24 10 -37 10 -63 -1z"/>
<path d="M2129 1865 c-21 -11 -25 -20 -21 -44 2 -16 17 -42 33 -57 l29 -28 35
34 c47 45 48 84 4 99 -40 14 -48 13 -80 -4z"/>
<path d="M3798 1867 c-39 -15 -37 -52 4 -94 l32 -33 28 27 c33 32 39 87 11 96
-10 2 -25 7 -33 10 -8 3 -27 0 -42 -6z"/>
<path d="M4352 1865 c-43 -19 -42 -51 1 -93 l33 -32 33 34 c41 42 39 74 -4 92
-24 10 -37 10 -63 -1z"/>
<path d="M1457 1814 l-27 -15 41 -49 c23 -28 46 -50 51 -50 4 0 8 19 8 43 0
32 -6 49 -22 64 -21 20 -25 20 -51 7z"/>
<path d="M1721 1806 c-17 -18 -22 -33 -19 -62 3 -37 5 -39 42 -42 29 -3 44 2
62 19 22 20 22 24 8 50 -8 16 -27 35 -43 43 -26 14 -30 14 -50 -8z"/>
<path d="M2009 1815 c-14 -8 -32 -28 -39 -45 -18 -44 7 -70 67 -70 l43 0 0 48
c0 35 -5 54 -18 65 -22 20 -20 20 -53 2z"/>
<path d="M2266 1804 c-11 -15 -16 -40 -14 -62 3 -36 4 -37 47 -40 44 -3 81 17
81 44 0 26 -23 62 -47 73 -36 16 -49 14 -67 -15z"/>
<path d="M3583 1813 c-18 -9 -33 -20 -33 -25 0 -7 75 25 89 38 11 10 -28 1
-56 -13z"/>
<path d="M3674 1815 c-21 -8 -35 -24 -43 -46 -11 -31 -10 -36 10 -51 12 -10
38 -18 60 -18 l39 0 0 48 c0 65 -21 86 -66 67z"/>
<path d="M3936 1811 c-10 -11 -16 -36 -16 -64 l0 -47 43 0 c31 0 49 6 62 20
17 19 17 23 3 54 -21 43 -69 63 -92 37z"/>
<path d="M4222 1810 c-68 -41 -47 -110 35 -110 l43 0 0 43 c0 32 -6 49 -23 65
-23 21 -23 21 -55 2z"/>
<path d="M4491 1806 c-21 -23 -31 -106 -12 -106 10 0 96 99 90 103 -2 2 -16 8
-30 14 -23 10 -30 9 -48 -11z"/>
<path d="M1010 1810 c-18 -12 -2 -12 25 0 13 6 15 9 5 9 -8 0 -22 -4 -30 -9z"/>
<path d="M1040 1796 c0 -2 9 -6 20 -9 11 -3 18 -1 14 4 -5 9 -34 13 -34 5z"/>
<path d="M2380 1793 c1 -4 7 -19 15 -33 12 -22 11 -27 -2 -42 -15 -17 -14 -18
5 -18 13 0 27 -11 36 -27 l14 -28 13 28 c7 15 20 27 31 27 19 0 24 11 11 24
-5 4 -8 18 -8 29 0 18 -6 22 -35 23 -20 1 -46 6 -58 13 -12 6 -22 8 -22 4z"/>
<path d="M1927 1778 c-10 -5 -34 -7 -53 -4 -35 7 -40 2 -24 -24 6 -10 4 -20
-7 -32 -15 -17 -15 -18 5 -18 13 0 27 -11 35 -26 l14 -27 7 27 c4 17 13 26 26
26 22 0 26 10 9 27 -8 8 -8 17 1 33 14 27 11 32 -13 18z"/>
<path d="M3586 1783 c-4 -5 -24 -8 -44 -8 -33 0 -37 -3 -34 -23 2 -13 -2 -30
-8 -38 -10 -11 -8 -14 12 -14 17 0 27 -8 35 -27 l10 -28 8 28 c4 17 14 27 26
27 21 0 24 11 8 27 -8 8 -8 17 0 31 6 11 11 23 11 26 0 8 -15 7 -24 -1z"/>
<path d="M4050 1785 c0 -4 5 -16 11 -27 8 -14 8 -23 0 -31 -17 -17 -13 -27 8
-27 11 0 23 -9 26 -20 3 -11 10 -20 15 -20 4 0 10 9 13 20 3 12 14 20 27 20
19 0 20 2 10 15 -7 9 -10 25 -6 40 6 25 5 26 -28 20 -19 -4 -43 -2 -55 4 -12
7 -21 9 -21 6z"/>
<path d="M4589 1713 c-30 -37 -99 -112 -154 -167 -55 -55 -94 -96 -86 -92 10
6 12 5 7 -3 -4 -6 -11 -9 -16 -6 -8 5 -28 -14 -28 -28 0 -5 -4 -12 -8 -15 -4
-4 -4 -1 0 6 12 20 -10 14 -30 -10 -10 -12 -13 -18 -6 -14 7 4 12 2 12 -5 0
-8 6 -6 18 4 10 10 23 17 29 17 13 0 63 -100 63 -127 0 -38 18 -70 43 -77 14
-3 62 5 113 20 69 20 104 25 155 21 l66 -4 -4 61 c-4 48 1 86 26 177 30 110
38 152 23 119 -6 -14 -9 -14 -24 2 -15 15 -16 18 -3 18 20 0 38 47 30 78 -3
14 -9 22 -12 18 -3 -3 -12 2 -19 12 -11 14 -12 12 -2 -15 9 -23 15 -29 21 -20
5 7 6 -2 3 -22 -4 -19 -8 -36 -10 -38 -9 -10 -106 -19 -106 -10 0 5 -7 6 -16
3 -8 -3 -13 -2 -10 3 3 4 -10 17 -29 27 -25 13 -34 24 -33 40 1 13 5 21 9 19
3 -2 16 10 29 27 12 17 17 27 10 23 -10 -6 -12 -4 -7 8 3 10 5 17 3 17 -1 0
-27 -30 -57 -67z m51 33 c0 -2 -8 -10 -17 -17 -16 -13 -17 -12 -4 4 13 16 21
21 21 13z m-74 -163 c-3 -25 -6 -67 -6 -93 l0 -47 -92 -6 c-51 -3 -94 -4 -96
-2 -2 2 35 42 83 89 48 46 85 88 82 93 -3 5 4 10 15 10 19 2 20 -2 14 -44z
m79 23 c29 -23 29 -24 17 -75 -7 -29 -12 -75 -12 -102 0 -27 -3 -49 -6 -49 -9
0 -44 43 -54 67 -12 30 -1 183 14 183 6 0 24 -11 41 -24z m149 -43 c4 -14 5
-28 1 -31 -3 -3 -5 1 -5 9 -1 25 -49 -134 -56 -183 -4 -27 -10 -48 -14 -48
-13 0 -45 83 -44 119 0 20 6 64 13 97 l13 62 43 0 c38 1 44 -2 49 -25z m-200
-182 l31 -31 -52 0 c-28 0 -75 -5 -104 -12 -50 -12 -52 -11 -74 14 -13 15 -25
24 -28 22 -3 -3 -8 0 -13 7 -4 8 -3 10 4 5 7 -4 12 -1 12 8 0 11 15 16 58 19
101 7 132 1 166 -32z m-204 -36 c7 -9 8 -15 2 -15 -5 0 -12 7 -16 15 -3 8 -4
15 -2 15 2 0 9 -7 16 -15z m263 -40 c20 -9 37 -21 37 -25 0 -4 -21 -10 -47
-14 -71 -10 -155 -38 -141 -48 7 -4 -3 -5 -22 -2 -28 4 -32 3 -20 -6 12 -9 9
-10 -15 -5 -37 8 -35 6 -40 45 -4 31 12 70 28 70 4 0 6 -4 3 -9 -3 -5 18 -3
47 5 64 16 121 12 170 -11z"/>
<path d="M1550 1738 c0 -31 17 -45 33 -29 8 8 5 17 -11 33 l-22 22 0 -26z"/>
<path d="M1656 1741 c-19 -21 -14 -41 10 -41 9 0 14 11 14 30 0 35 -1 36 -24
11z"/>
<path d="M2110 1732 c0 -21 5 -32 14 -32 26 0 29 21 7 43 l-21 21 0 -32z"/>
<path d="M2206 1741 c-19 -21 -14 -41 8 -41 8 0 16 14 18 30 5 35 -2 38 -26
11z"/>
<path d="M2510 1747 c0 -33 34 -47 116 -45 l79 1 -90 28 c-104 33 -105 33
-105 16z"/>
<path d="M3413 1741 c-68 -20 -70 -41 -5 -41 49 0 82 20 82 48 0 15 -11 14
-77 -7z"/>
<path d="M3770 1732 c0 -21 5 -32 14 -32 26 0 29 21 7 43 l-21 21 0 -32z"/>
<path d="M3864 1739 c-16 -17 -16 -22 -4 -29 24 -16 30 -12 30 20 0 36 -1 36
-26 9z"/>
<path d="M4320 1738 c0 -31 17 -45 33 -29 8 8 5 17 -11 33 l-22 22 0 -26z"/>
<path d="M4426 1741 c-19 -21 -14 -41 10 -41 9 0 14 11 14 30 0 35 -1 36 -24
11z"/>
<path d="M3315 1710 c-18 -8 -17 -9 8 -9 15 -1 27 4 27 9 0 12 -8 12 -35 0z"/>
<path d="M1606 1691 c-4 -6 -18 -11 -32 -11 -37 0 -29 -21 29 -78 58 -57 77
-64 77 -29 0 13 5 28 11 34 8 8 8 13 0 17 -6 4 -11 18 -11 32 0 18 -5 24 -23
24 -13 0 -28 5 -34 11 -8 8 -13 8 -17 0z"/>
<path d="M2155 1690 c-3 -5 -15 -10 -26 -10 -11 0 -19 -7 -19 -17 0 -9 -7 -24
-15 -33 -14 -15 -14 -18 0 -30 8 -7 15 -21 15 -31 0 -12 7 -19 18 -19 10 0 23
-5 30 -12 9 -9 15 -9 24 0 7 7 20 12 30 12 11 0 18 7 18 19 0 10 7 24 15 31
14 12 14 15 0 30 -8 9 -15 24 -15 33 0 10 -8 17 -19 17 -11 0 -23 5 -26 10 -3
6 -10 10 -15 10 -5 0 -12 -4 -15 -10z"/>
<path d="M2705 1690 c-3 -5 -15 -10 -26 -10 -10 0 -19 -7 -19 -15 0 -8 -6 -24
-12 -35 -10 -15 -10 -22 0 -32 6 -6 12 -20 12 -30 0 -11 7 -18 18 -18 10 0 23
-5 30 -12 9 -9 15 -9 24 0 7 7 22 12 35 12 17 0 23 6 23 23 0 13 5 28 12 35 9
9 9 15 0 24 -7 7 -12 23 -12 36 0 19 -4 23 -20 19 -11 -3 -23 -1 -26 4 -7 12
-31 11 -39 -1z"/>
<path d="M3256 1693 c-4 -4 -17 -8 -29 -8 -12 -1 -42 -2 -66 -3 l-44 -2 23
-25 c30 -32 36 -31 54 3 l15 27 1 -27 c0 -15 -4 -30 -10 -33 -6 -4 -6 -12 -1
-23 5 -9 12 -25 15 -34 3 -10 14 -18 24 -18 10 0 23 -5 29 -11 8 -8 13 -8 17
0 4 6 18 11 32 11 16 0 24 6 24 18 0 10 6 24 12 30 10 10 10 17 0 32 -6 11
-12 27 -12 35 0 8 -9 15 -19 15 -11 0 -23 5 -26 10 -7 12 -28 13 -39 3z"/>
<path d="M3815 1690 c-3 -5 -15 -10 -26 -10 -10 0 -19 -7 -19 -15 0 -8 -6 -24
-12 -35 -10 -15 -10 -22 0 -32 6 -6 12 -20 12 -30 0 -11 7 -18 18 -18 10 0 23
-5 30 -12 9 -9 15 -9 24 0 7 7 20 12 30 12 11 0 18 7 18 19 0 10 7 24 15 31
14 12 14 15 0 30 -8 9 -15 24 -15 33 0 10 -8 17 -19 17 -11 0 -23 5 -26 10 -3
6 -10 10 -15 10 -5 0 -12 -4 -15 -10z"/>
<path d="M4376 1691 c-4 -6 -18 -11 -32 -11 -19 0 -24 -5 -24 -24 0 -14 -5
-28 -11 -32 -8 -4 -8 -9 0 -17 6 -6 11 -19 11 -28 0 -37 24 -30 76 22 59 58
67 79 31 79 -13 0 -28 5 -34 11 -8 8 -13 8 -17 0z"/>
<path d="M1180 1674 c0 -10 5 -26 10 -34 8 -11 9 -7 4 15 -8 37 -14 45 -14 19z"/>
<path d="M1700 1666 c0 -26 21 -29 43 -7 l21 21 -32 0 c-21 0 -32 -5 -32 -14z"/>
<path d="M1772 1647 l-32 -33 33 -32 c44 -43 74 -42 93 3 13 31 13 39 -1 65
-21 40 -52 39 -93 -3z"/>
<path d="M1920 1651 c-17 -43 2 -101 35 -101 26 0 85 45 85 64 0 22 -55 66
-82 66 -19 0 -29 -8 -38 -29z"/>
<path d="M2040 1655 c25 -27 40 -25 40 6 0 15 -7 19 -32 19 l-31 0 23 -25z"/>
<path d="M2256 1671 c-3 -4 0 -16 7 -25 12 -16 14 -15 36 8 l24 26 -31 0 c-17
0 -33 -4 -36 -9z"/>
<path d="M2327 1652 c-33 -35 -33 -39 0 -74 37 -39 76 -38 93 2 33 80 -35 133
-93 72z"/>
<path d="M2470 1646 c-9 -28 -8 -40 5 -65 21 -41 52 -40 93 2 l32 33 -33 32
c-46 44 -82 43 -97 -2z"/>
<path d="M2593 1653 c23 -24 29 -26 37 -13 19 29 11 40 -27 40 l-38 0 28 -27z"/>
<path d="M2804 1665 c5 -36 25 -40 53 -12 l28 27 -42 0 c-31 0 -41 -4 -39 -15z"/>
<path d="M2877 1652 c-34 -36 -34 -44 4 -76 43 -37 75 -34 95 8 36 75 -41 129
-99 68z"/>
<path d="M2985 1671 c-7 -12 12 -24 25 -16 11 7 4 25 -10 25 -5 0 -11 -4 -15
-9z"/>
<path d="M3032 1668 c-34 -44 -13 -118 35 -118 27 0 83 44 83 65 0 6 -13 23
-28 38 -30 29 -73 35 -90 15z"/>
<path d="M3360 1666 c0 -7 6 -19 13 -25 11 -8 19 -5 37 14 l23 25 -36 0 c-25
0 -37 -5 -37 -14z"/>
<path d="M3432 1647 l-32 -33 33 -32 c43 -42 73 -42 93 1 15 31 15 36 0 65
-22 42 -53 42 -94 -1z"/>
<path d="M3580 1645 c-14 -42 4 -88 36 -93 23 -3 84 42 84 62 0 22 -55 66 -82
66 -21 0 -29 -7 -38 -35z"/>
<path d="M3695 1660 c10 -11 24 -20 32 -20 7 0 13 9 13 20 0 16 -7 20 -32 20
-30 0 -31 0 -13 -20z"/>
<path d="M3920 1660 c0 -11 6 -20 13 -20 8 0 22 9 32 20 18 20 17 20 -13 20
-25 0 -32 -4 -32 -20z"/>
<path d="M3985 1649 l-26 -32 32 -33 c40 -41 71 -44 87 -9 24 52 4 105 -39
105 -18 0 -36 -10 -54 -31z"/>
<path d="M4136 1648 c-11 -26 -11 -37 -1 -62 19 -44 49 -45 91 -5 l34 33 -32
33 c-42 43 -74 44 -92 1z"/>
<path d="M4257 1659 c22 -22 43 -19 43 7 0 9 -11 14 -32 14 l-32 0 21 -21z"/>
<path d="M4848 1644 c-31 -16 -38 -38 -10 -32 9 2 16 10 14 17 -2 8 3 11 11 8
8 -3 14 1 14 9 0 8 -1 14 -1 14 -1 -1 -13 -8 -28 -16z"/>
<path d="M1185 1610 c-10 -16 16 -120 28 -113 6 3 7 1 3 -5 -4 -6 1 -37 10
-68 11 -39 15 -79 12 -124 l-5 -67 63 5 c43 3 83 -1 124 -12 39 -11 66 -14 76
-8 12 7 -3 15 -63 31 -44 11 -93 21 -109 21 l-29 0 25 20 c14 11 38 22 54 26
22 5 26 8 15 16 -10 7 -4 8 21 5 19 -2 46 -1 60 4 18 5 10 7 -32 8 -64 1 -71
10 -32 40 22 18 23 20 5 18 -11 0 -19 -5 -18 -10 1 -5 -8 -11 -20 -13 -20 -3
-23 1 -24 29 -1 17 0 43 1 57 4 44 -10 15 -21 -46 -6 -32 -20 -75 -32 -94
l-22 -35 -7 50 c-4 28 -19 88 -33 134 -14 47 -25 90 -25 96 0 6 12 16 28 23
25 10 25 11 2 6 -14 -3 -31 -13 -39 -23 -12 -14 -13 -13 -7 12 6 27 2 35 -9
17z m190 -240 c-3 -5 -12 -10 -18 -10 -7 0 -6 4 3 10 19 12 23 12 15 0z"/>
<path d="M2040 1575 l-23 -25 31 0 c25 0 32 4 32 19 0 31 -15 33 -40 6z"/>
<path d="M2267 1593 c-4 -3 -7 -15 -7 -25 0 -14 8 -18 32 -18 l31 0 -23 25
c-27 28 -24 27 -33 18z"/>
<path d="M2597 1582 c-24 -26 -21 -32 13 -32 32 0 40 19 17 39 -11 8 -18 7
-30 -7z"/>
<path d="M2817 1593 c-4 -3 -7 -15 -7 -25 0 -13 8 -18 30 -18 34 0 38 10 12
33 -20 19 -26 20 -35 10z"/>
<path d="M3150 1575 l-23 -25 31 0 c25 0 32 4 32 19 0 31 -15 33 -40 6z"/>
<path d="M3706 1581 c-22 -24 -20 -31 9 -31 18 0 25 5 25 19 0 28 -15 33 -34
12z"/>
<path d="M3927 1593 c-4 -3 -7 -15 -7 -25 0 -14 8 -18 32 -18 l31 0 -23 25
c-27 28 -24 27 -33 18z"/>
<path d="M1705 1580 c-10 -16 4 -30 32 -30 25 0 26 0 8 20 -20 22 -31 25 -40
10z"/>
<path d="M3365 1580 c-10 -16 4 -30 31 -30 26 0 31 9 12 28 -15 15 -35 16 -43
2z"/>
<path d="M4255 1570 c-18 -20 -18 -20 14 -20 25 0 32 4 29 17 -5 25 -22 26
-43 3z"/>
<path d="M1052 1568 c-17 -17 -15 -63 2 -78 19 -15 62 -9 58 8 -1 8 2 11 8 7
16 -10 24 24 12 51 -13 27 -58 34 -80 12z"/>
<path d="M1881 1558 c-7 -19 -18 -28 -32 -28 -20 0 -21 -1 -6 -18 12 -13 13
-22 5 -35 -13 -24 -6 -30 24 -18 15 5 30 6 39 0 27 -17 41 -11 28 12 -8 15 -8
24 0 32 16 16 13 27 -8 27 -12 0 -23 10 -29 28 l-10 27 -11 -27z"/>
<path d="M2435 1558 c-5 -18 -14 -28 -26 -28 -21 0 -24 -11 -8 -27 8 -8 8 -17
-1 -33 -11 -21 -11 -22 11 -16 30 9 38 9 67 1 21 -7 22 -5 13 17 -7 19 -6 29
7 42 15 15 15 16 -6 16 -13 0 -27 10 -36 28 l-14 27 -7 -27z"/>
<path d="M2986 1555 c-4 -17 -13 -25 -27 -25 -18 0 -19 -3 -9 -15 7 -9 10 -25
6 -41 -6 -23 -5 -25 11 -19 23 10 43 10 65 0 16 -6 17 -3 12 24 -4 20 -3 31 5
31 6 0 11 5 11 10 0 6 -9 10 -20 10 -13 0 -22 9 -26 25 -3 14 -10 25 -14 25
-4 0 -11 -11 -14 -25z"/>
<path d="M3543 1557 c-8 -18 -20 -27 -35 -27 -21 0 -21 -1 -6 -16 12 -13 14
-23 7 -41 -8 -22 -7 -24 13 -17 27 8 34 8 67 -2 22 -6 22 -5 11 15 -10 19 -9
26 6 42 16 18 16 19 -8 19 -17 0 -27 8 -34 27 l-9 27 -12 -27z"/>
<path d="M4096 1555 c-4 -16 -13 -25 -26 -25 -21 0 -27 -15 -10 -25 6 -3 7
-17 4 -31 -6 -25 1 -30 25 -15 9 6 24 5 39 0 30 -12 37 -6 24 18 -8 13 -7 22
5 35 15 17 14 18 -6 18 -14 0 -25 9 -31 25 -5 14 -11 25 -14 25 -2 0 -7 -11
-10 -25z"/>
<path d="M4876 1572 c-6 -10 30 -9 40 1 4 4 -2 7 -14 7 -11 0 -23 -4 -26 -8z"/>
<path d="M4938 1570 c18 -21 15 -58 -7 -70 -28 -15 -35 -12 -20 7 13 15 12 15
-8 4 -13 -6 -23 -10 -24 -9 0 2 -2 11 -4 21 -5 27 -15 34 -15 10 0 -23 29 -53
53 -53 41 0 63 65 30 91 -15 11 -16 11 -5 -1z"/>
<path d="M1700 1522 c0 -5 22 -28 50 -51 l49 -42 15 29 c14 28 14 31 -8 51
-15 14 -35 21 -64 21 -23 0 -42 -4 -42 -8z"/>
<path d="M1975 1510 c-15 -17 -16 -24 -5 -49 6 -17 25 -35 42 -42 45 -18 62
-3 66 60 l3 51 -44 0 c-31 0 -49 -6 -62 -20z"/>
<path d="M2110 1498 l0 -32 21 21 c22 22 19 43 -7 43 -9 0 -14 -11 -14 -32z"/>
<path d="M2194 1519 c-3 -6 3 -21 15 -32 l21 -21 0 32 c0 32 -21 45 -36 21z"/>
<path d="M2260 1481 c0 -58 16 -76 61 -66 23 5 35 16 46 42 13 32 13 37 -3 54
-12 13 -31 19 -61 19 l-43 0 0 -49z"/>
<path d="M2526 1508 c-14 -20 -14 -25 2 -52 42 -72 112 -52 112 31 l0 43 -49
0 c-40 0 -53 -4 -65 -22z"/>
<path d="M2660 1498 l0 -32 21 21 c22 22 19 43 -7 43 -9 0 -14 -11 -14 -32z"/>
<path d="M2745 1519 c-7 -11 22 -49 37 -49 4 0 8 14 8 30 0 23 -5 30 -19 30
-11 0 -23 -5 -26 -11z"/>
<path d="M2810 1487 c0 -54 25 -81 63 -72 30 8 41 20 52 53 11 36 -19 62 -72
62 l-43 0 0 -43z"/>
<path d="M3086 1511 c-39 -43 26 -117 80 -92 21 9 24 18 24 61 l0 50 -43 0
c-31 0 -49 -6 -61 -19z"/>
<path d="M3219 1528 c-2 -9 -4 -58 -2 -58 2 0 12 9 22 19 14 14 16 22 8 30
-10 10 -26 15 -28 9z"/>
<path d="M3304 1519 c-3 -6 3 -21 15 -32 l21 -21 0 32 c0 32 -21 45 -36 21z"/>
<path d="M3361 1488 c3 -44 22 -78 45 -78 29 0 61 23 72 53 17 45 -6 67 -70
67 l-50 0 3 -42z"/>
<path d="M3636 1512 c-24 -27 -5 -74 38 -95 32 -15 35 -15 50 2 10 11 16 36
16 64 l0 47 -43 0 c-30 0 -49 -6 -61 -18z"/>
<path d="M3770 1498 l0 -32 21 21 c22 22 19 43 -7 43 -9 0 -14 -11 -14 -32z"/>
<path d="M3854 1519 c-3 -6 3 -21 15 -32 l21 -21 0 32 c0 32 -21 45 -36 21z"/>
<path d="M3920 1481 c0 -58 16 -76 60 -66 22 5 36 17 47 41 15 31 15 35 -2 54
-13 14 -31 20 -62 20 l-43 0 0 -49z"/>
<path d="M4197 1512 c-20 -22 -21 -36 -7 -63 10 -18 14 -17 60 22 28 23 50 46
50 51 0 17 -86 9 -103 -10z"/>
<path d="M2137 1462 c-37 -38 -36 -77 2 -96 23 -12 34 -13 60 -3 42 16 43 61
3 100 -15 15 -30 27 -33 27 -3 0 -17 -13 -32 -28z"/>
<path d="M2692 1457 c-42 -43 -42 -74 0 -91 26 -11 37 -11 62 -1 43 18 43 54
1 95 l-31 30 -32 -33z"/>
<path d="M3247 1462 c-58 -61 -15 -128 62 -96 42 18 41 50 -2 92 l-33 32 -27
-28z"/>
<path d="M3797 1462 c-38 -40 -36 -79 4 -96 77 -33 122 39 61 97 -15 15 -30
27 -33 27 -3 0 -17 -13 -32 -28z"/>
<path d="M1858 1427 c-16 -6 -28 -13 -28 -16 0 -3 33 -27 72 -53 82 -53 99
-51 78 11 -10 32 -21 43 -52 55 -21 9 -39 16 -41 15 -1 -1 -14 -6 -29 -12z"/>
<path d="M2402 1422 c-43 -21 -60 -73 -40 -122 32 -75 140 -72 172 5 14 32 14
39 -2 71 -10 23 -29 41 -50 50 -41 17 -39 17 -80 -4z"/>
<path d="M2962 1425 c-47 -20 -68 -72 -48 -119 33 -78 140 -83 172 -7 34 82
-43 161 -124 126z"/>
<path d="M3515 1425 c-19 -8 -36 -27 -47 -51 -16 -36 -15 -40 3 -75 24 -49 72
-67 121 -46 74 31 74 142 1 172 -41 17 -39 17 -78 0z"/>
<path d="M4069 1424 c-28 -12 -39 -24 -49 -55 -21 -62 -4 -64 78 -11 39 26 72
50 72 53 0 4 -8 9 -17 12 -10 2 -25 7 -33 10 -8 3 -31 -1 -51 -9z"/>
<path d="M2066 1391 c-5 -8 -19 -11 -37 -7 -27 5 -28 4 -19 -20 6 -14 7 -37 4
-51 -6 -22 -4 -24 15 -18 13 4 28 2 36 -5 12 -10 15 -9 15 8 0 13 10 24 28 30
l27 9 -27 13 c-15 7 -28 22 -30 34 -2 16 -5 18 -12 7z"/>
<path d="M2260 1383 c0 -12 -11 -25 -27 -33 l-28 -13 28 -9 c17 -6 27 -17 27
-30 0 -17 2 -18 15 -8 12 10 21 10 40 2 28 -13 30 -10 14 19 -7 15 -7 29 0 51
10 29 10 30 -15 24 -15 -4 -32 -2 -40 5 -11 9 -14 8 -14 -8z"/>
<path d="M2626 1392 c-6 -9 -19 -12 -41 -8 l-33 7 11 -30 c8 -22 8 -36 -1 -55
-11 -24 -10 -25 14 -14 18 9 27 9 36 0 17 -17 28 -15 28 7 0 11 9 23 20 26 25
8 26 21 1 28 -11 2 -21 15 -23 28 -2 18 -5 20 -12 11z"/>
<path d="M2810 1381 c0 -14 -9 -25 -27 -32 l-28 -11 28 -10 c17 -6 27 -17 27
-30 0 -17 2 -18 15 -8 12 10 21 10 42 1 24 -11 25 -10 18 11 -9 31 -9 49 0 71
6 16 4 17 -19 11 -16 -4 -32 -1 -41 6 -13 10 -15 9 -15 -9z"/>
<path d="M3176 1391 c-5 -8 -19 -11 -38 -7 -26 5 -29 3 -23 -12 10 -22 10 -42
1 -70 -7 -21 -6 -21 18 -11 20 9 29 9 41 -1 13 -10 15 -9 15 8 0 13 10 24 28
30 l27 10 -27 10 c-16 7 -28 20 -30 34 -2 17 -5 20 -12 9z"/>
<path d="M3360 1380 c0 -13 -8 -24 -20 -27 -27 -7 -25 -17 6 -32 17 -7 24 -17
20 -26 -6 -17 5 -20 20 -5 7 7 19 8 37 1 25 -10 25 -9 15 20 -8 22 -7 38 1 56
11 24 10 24 -19 18 -19 -4 -36 -2 -45 5 -12 10 -15 9 -15 -10z"/>
<path d="M3727 1392 c-6 -9 -19 -11 -38 -7 -28 6 -29 6 -18 -18 8 -18 9 -34 1
-56 -10 -29 -10 -30 13 -19 18 8 28 8 40 -2 12 -10 15 -10 15 3 0 9 12 23 27
31 l28 14 -27 12 c-15 7 -28 22 -30 34 -2 15 -5 18 -11 8z"/>
<path d="M3920 1383 c0 -12 -11 -25 -27 -33 l-28 -13 28 -9 c17 -6 27 -17 27
-30 0 -16 3 -18 14 -9 8 7 25 9 40 5 25 -6 26 -5 16 20 -6 17 -6 35 0 51 9 24
8 25 -15 19 -15 -4 -32 -1 -40 6 -12 10 -15 9 -15 -7z"/>
<path d="M4229 1363 c-13 -16 -12 -17 4 -4 16 13 21 21 13 21 -2 0 -10 -8 -17
-17z"/>
<path d="M4249 1353 c-13 -16 -12 -17 4 -4 16 13 21 21 13 21 -2 0 -10 -8 -17
-17z"/>
<path d="M2132 1309 c-19 -7 -23 -15 -20 -41 2 -26 10 -37 38 -50 33 -17 35
-17 57 4 58 55 3 119 -75 87z"/>
<path d="M2683 1310 c-34 -14 -30 -59 7 -95 l30 -29 35 34 c42 41 45 72 10 88
-30 14 -51 14 -82 2z"/>
<path d="M3238 1309 c-28 -16 -22 -61 12 -94 l30 -29 30 29 c39 37 41 81 4 95
-32 13 -54 12 -76 -1z"/>
<path d="M3793 1310 c-31 -13 -31 -59 0 -88 22 -21 24 -21 57 -4 28 13 36 24
38 50 3 27 -1 34 -23 42 -31 12 -42 12 -72 0z"/>
<path d="M1601 1264 c0 -11 3 -14 6 -6 3 7 2 16 -1 19 -3 4 -6 -2 -5 -13z"/>
<path d="M2276 1251 c-11 -12 -16 -31 -14 -53 3 -29 8 -34 41 -42 32 -8 41 -7
57 10 18 17 18 23 8 52 -8 20 -22 35 -42 42 -16 5 -30 10 -31 10 -1 0 -10 -9
-19 -19z"/>
<path d="M2562 1260 c-13 -6 -29 -24 -37 -42 -19 -47 1 -68 67 -68 l48 0 0 43
c0 30 -6 49 -18 60 -21 19 -27 20 -60 7z"/>
<path d="M2827 1252 c-10 -11 -17 -36 -17 -60 l0 -42 48 0 c37 0 50 4 60 21
18 28 0 72 -34 88 -33 15 -38 14 -57 -7z"/>
<path d="M3113 1258 c-12 -6 -27 -23 -34 -39 -17 -43 9 -69 68 -69 l43 0 0 43
c0 30 -6 49 -18 60 -21 19 -28 20 -59 5z"/>
<path d="M3380 1255 c-7 -9 -15 -36 -18 -60 l-4 -45 49 0 c36 0 55 5 67 19 16
18 16 21 1 51 -9 17 -27 35 -41 40 -34 13 -39 13 -54 -5z"/>
<path d="M3670 1259 c-15 -5 -31 -23 -38 -41 -10 -27 -9 -35 5 -50 18 -20 54
-23 84 -8 34 19 21 112 -15 109 -6 0 -22 -5 -36 -10z"/>
<path d="M1591 1221 c-1 -9 -10 -12 -33 -7 -40 7 -72 -8 -37 -17 13 -4 34 -4
48 0 17 4 22 2 17 -6 -4 -6 -1 -11 8 -11 9 0 16 -5 16 -11 0 -6 25 -54 56
-105 58 -98 88 -175 79 -205 -9 -27 12 -32 40 -11 13 11 22 21 20 24 -3 2 10
3 28 1 26 -3 28 -1 12 6 -13 6 5 8 55 5 65 -3 71 -3 40 7 -19 6 -56 9 -82 6
-27 -2 -48 -1 -48 4 0 4 17 22 38 40 20 17 31 28 24 24 -22 -12 -72 -12 -73
-1 -1 6 -4 0 -8 -13 -8 -28 -31 -40 -31 -16 0 29 -40 95 -58 95 -11 0 -13 3
-5 8 9 5 7 16 -9 40 -11 17 -24 29 -30 26 -5 -3 -8 0 -7 7 2 8 -1 25 -5 38 -6
18 -10 21 -17 10 -6 -9 -9 -1 -10 26 0 31 -2 35 -8 20 -8 -19 -9 -18 -13 5 -3
14 -6 19 -7 11z m53 -87 c3 -8 2 -12 -4 -9 -6 3 -10 10 -10 16 0 14 7 11 14
-7z m46 -78 c0 -6 -7 -1 -15 10 -8 10 -15 23 -15 28 0 6 7 1 15 -10 8 -10 15
-23 15 -28z m40 -66 c6 -11 8 -20 6 -20 -3 0 -10 9 -16 20 -6 11 -8 20 -6 20
3 0 10 -9 16 -20z m100 -55 c-7 -8 -16 -15 -21 -15 -5 0 -6 7 -3 15 4 8 13 15
21 15 13 0 13 -3 3 -15z"/>
<path d="M2400 1204 c7 -19 7 -31 -1 -40 -9 -11 -8 -14 4 -14 9 0 23 -12 31
-27 l14 -28 11 28 c7 18 18 27 32 27 20 0 21 1 6 18 -12 13 -13 22 -5 35 13
24 5 31 -20 18 -14 -8 -29 -8 -47 -1 -36 14 -36 14 -25 -16z"/>
<path d="M2954 1204 c4 -15 2 -32 -5 -40 -9 -11 -7 -14 10 -14 14 0 23 -8 27
-25 3 -14 10 -25 14 -25 4 0 11 11 14 25 4 17 13 25 27 25 17 0 19 3 10 14 -7
8 -9 25 -5 40 6 25 5 26 -20 16 -17 -6 -35 -6 -52 0 -25 10 -26 9 -20 -16z"/>
<path d="M3500 1224 c0 -5 5 -16 10 -24 6 -10 4 -20 -7 -32 -15 -17 -15 -18 6
-18 13 0 26 -10 33 -26 l12 -25 13 25 c8 16 22 26 35 26 20 0 21 1 4 13 -14
10 -15 17 -6 41 9 25 9 27 -7 21 -23 -10 -53 -10 -75 -1 -10 5 -18 4 -18 0z"/>
<path d="M2215 1201 c-3 -5 -1 -12 5 -16 5 -3 10 1 10 9 0 18 -6 21 -15 7z"/>
<path d="M2660 1182 c0 -21 5 -32 14 -32 26 0 29 21 7 43 l-21 21 0 -32z"/>
<path d="M3316 1191 c-19 -21 -14 -41 10 -41 9 0 14 11 14 30 0 35 -1 36 -24
11z"/>
<path d="M3770 1194 c0 -8 5 -12 10 -9 6 4 8 11 5 16 -9 14 -15 11 -15 -7z"/>
<path d="M1635 1189 c4 -5 18 -9 32 -9 32 0 27 7 -10 14 -16 3 -25 1 -22 -5z"/>
<path d="M2757 1182 c-19 -21 -13 -32 15 -32 13 0 17 7 16 25 -3 30 -9 31 -31
7z"/>
<path d="M3215 1175 c0 -16 6 -25 16 -25 25 0 30 12 12 32 -22 24 -28 23 -28
-7z"/>
<path d="M4408 1183 c7 -3 16 -2 19 1 4 3 -2 6 -13 5 -11 0 -14 -3 -6 -6z"/>
<path d="M2710 1135 c-7 -8 -21 -15 -31 -15 -12 0 -19 -7 -19 -19 0 -11 -5
-23 -11 -27 -19 -11 12 -23 83 -30 71 -7 92 4 65 34 -8 9 -12 23 -10 30 3 6
-3 12 -13 12 -10 0 -25 7 -34 15 -15 14 -18 14 -30 0z"/>
<path d="M3260 1135 c-7 -8 -21 -15 -32 -15 -13 0 -18 -5 -15 -14 3 -8 -1 -20
-9 -27 -11 -9 -12 -15 -2 -26 9 -12 26 -13 78 -8 66 7 91 17 71 29 -6 4 -11
16 -11 27 0 11 -7 19 -17 19 -9 0 -24 7 -33 15 -15 14 -18 14 -30 0z"/>
<path d="M1495 1120 c-27 -29 -10 -74 28 -78 36 -4 57 13 57 47 0 51 -50 69
-85 31z m69 1 c4 -5 -3 -7 -14 -4 -23 6 -26 13 -6 13 8 0 17 -4 20 -9z"/>
<path d="M4470 1131 c14 -4 30 -18 37 -31 8 -16 13 -19 13 -9 0 21 -32 49 -56
48 -14 -1 -13 -3 6 -8z"/>
<path d="M2480 1106 c0 -7 13 -16 29 -19 16 -3 42 -9 57 -13 l29 -7 -24 27
c-27 29 -91 38 -91 12z"/>
<path d="M2595 1100 c14 -15 21 -17 32 -9 22 19 15 29 -19 29 -30 0 -31 0 -13
-20z"/>
<path d="M2810 1106 c0 -24 14 -26 40 -5 l25 19 -32 0 c-22 0 -33 -5 -33 -14z"/>
<path d="M2875 1090 c-25 -26 -27 -32 -15 -44 8 -8 37 -16 64 -17 41 -3 50 0
56 16 4 11 1 32 -7 48 -19 38 -60 37 -98 -3z"/>
<path d="M3030 1099 c-6 -11 -10 -30 -8 -42 3 -19 10 -22 54 -25 37 -2 54 1
64 13 11 13 9 20 -15 45 -35 36 -79 40 -95 9z"/>
<path d="M3151 1101 c25 -20 39 -19 39 5 0 9 -11 14 -31 14 l-31 0 23 -19z"/>
<path d="M3360 1111 c0 -5 6 -14 13 -20 11 -8 18 -6 32 9 18 20 17 20 -13 20
-18 0 -32 -4 -32 -9z"/>
<path d="M3429 1094 l-24 -27 29 7 c15 4 41 10 57 13 41 8 38 33 -4 33 -23 0
-41 -8 -58 -26z"/>
<path d="M1780 1088 c0 -4 5 -19 12 -35 6 -15 10 -34 9 -42 -1 -7 2 -10 8 -6
6 3 11 18 11 33 0 22 -2 24 -11 12 -8 -12 -9 -8 -5 15 3 17 3 24 -1 16 -5 -11
-7 -11 -14 0 -5 8 -9 11 -9 7z"/>
<path d="M1900 990 c8 -5 20 -10 25 -10 6 0 3 5 -5 10 -8 5 -19 10 -25 10 -5
0 -3 -5 5 -10z"/>
<path d="M1835 980 c-3 -5 -1 -10 4 -10 6 0 11 5 11 10 0 6 -2 10 -4 10 -3 0
-8 -4 -11 -10z"/>
<path d="M2008 893 c7 -3 16 -2 19 1 4 3 -2 6 -13 5 -11 0 -14 -3 -6 -6z"/>
<path d="M2039 803 c-13 -16 -12 -17 4 -4 16 13 21 21 13 21 -2 0 -10 -8 -17
-17z"/>
<path d="M2030 752 c0 -11 31 -32 47 -32 5 0 18 7 29 16 18 15 18 15 -3 5 -29
-15 -46 -14 -37 2 4 6 4 9 -1 5 -4 -4 -14 -3 -22 3 -9 8 -13 8 -13 1z"/>
<path d="M2346 588 c3 -5 10 -6 15 -3 13 9 11 12 -6 12 -8 0 -12 -4 -9 -9z"/>
</g>
</svg>
